<svg width="20" height="21" viewBox="0 0 20 21" fill="none" xmlns="http://www.w3.org/2000/svg">
<path d="M6.025 16.9166C6.70833 16.1833 7.75 16.2416 8.35 17.0416L9.19167 18.1666C9.86667 19.0583 10.9583 19.0583 11.6333 18.1666L12.475 17.0416C13.075 16.2416 14.1167 16.1833 14.8 16.9166C16.2833 18.5 17.4917 17.975 17.4917 15.7583V6.36663C17.5 3.00829 16.7167 2.16663 13.5667 2.16663H7.26667C4.11667 2.16663 3.33333 3.00829 3.33333 6.36663V15.75C3.33333 17.975 4.55 18.4916 6.025 16.9166Z" stroke="#676767" stroke-width="1.5" stroke-linecap="round" stroke-linejoin="round"/>
<path d="M7.16339 9.66667H7.17088" stroke="#676767" stroke-width="2" stroke-linecap="round" stroke-linejoin="round"/>
<path d="M9.4987 9.66663H14.082" stroke="#676767" stroke-width="1.5" stroke-linecap="round" stroke-linejoin="round"/>
<path d="M7.16339 6.33329H7.17088" stroke="#676767" stroke-width="2" stroke-linecap="round" stroke-linejoin="round"/>
<path d="M9.4987 6.33337H14.082" stroke="#676767" stroke-width="1.5" stroke-linecap="round" stroke-linejoin="round"/>
</svg>
