<svg width="20" height="21" viewBox="0 0 20 21" fill="none" xmlns="http://www.w3.org/2000/svg">
<path fill-rule="evenodd" clip-rule="evenodd" d="M6.66681 10.6667C6.83162 10.6667 6.99274 10.7156 7.12978 10.8071C7.26682 10.8987 7.37363 11.0288 7.43671 11.1811C7.49978 11.3334 7.51628 11.5009 7.48413 11.6626C7.45197 11.8242 7.37261 11.9727 7.25606 12.0893C7.13952 12.2058 6.99103 12.2852 6.82938 12.3173C6.66773 12.3495 6.50018 12.333 6.3479 12.2699C6.19563 12.2068 6.06548 12.1 5.97392 11.963C5.88235 11.826 5.83347 11.6648 5.83347 11.5C5.83347 11.3906 5.85503 11.2822 5.89691 11.1811C5.93879 11.08 6.00017 10.9881 6.07755 10.9108C6.15493 10.8334 6.2468 10.772 6.3479 10.7301C6.44901 10.6882 6.55737 10.6667 6.66681 10.6667Z" fill="#8210FB"/>
<path fill-rule="evenodd" clip-rule="evenodd" d="M10.0001 10.6667C10.165 10.6667 10.3261 10.7156 10.4631 10.8071C10.6002 10.8987 10.707 11.0288 10.77 11.1811C10.8331 11.3334 10.8496 11.5009 10.8175 11.6626C10.7853 11.8242 10.7059 11.9727 10.5894 12.0893C10.4729 12.2058 10.3244 12.2852 10.1627 12.3173C10.0011 12.3495 9.83351 12.333 9.68124 12.2699C9.52896 12.2068 9.39881 12.1 9.30725 11.963C9.21568 11.826 9.16681 11.6648 9.16681 11.5C9.16681 11.279 9.2546 11.067 9.41088 10.9108C9.56716 10.7545 9.77912 10.6667 10.0001 10.6667Z" fill="#8210FB"/>
<path fill-rule="evenodd" clip-rule="evenodd" d="M13.3335 10.6667C13.4983 10.6667 13.6594 10.7156 13.7965 10.8071C13.9335 10.8987 14.0403 11.0288 14.1034 11.1811C14.1664 11.3334 14.1829 11.5009 14.1508 11.6626C14.1186 11.8242 14.0393 11.9727 13.9227 12.0893C13.8062 12.2058 13.6577 12.2852 13.4961 12.3173C13.3344 12.3495 13.1668 12.333 13.0146 12.2699C12.8623 12.2068 12.7322 12.1 12.6406 11.963C12.549 11.826 12.5001 11.6648 12.5001 11.5C12.5001 11.279 12.5879 11.067 12.7442 10.9108C12.9005 10.7545 13.1125 10.6667 13.3335 10.6667Z" fill="#8210FB"/>
<path fill-rule="evenodd" clip-rule="evenodd" d="M6.66681 14.6667C6.83162 14.6667 6.99274 14.7156 7.12978 14.8071C7.26682 14.8987 7.37363 15.0288 7.43671 15.1811C7.49978 15.3334 7.51628 15.5009 7.48413 15.6626C7.45197 15.8242 7.37261 15.9727 7.25606 16.0893C7.13952 16.2058 6.99103 16.2852 6.82938 16.3173C6.66773 16.3495 6.50018 16.333 6.3479 16.2699C6.19563 16.2068 6.06548 16.1 5.97392 15.963C5.88235 15.826 5.83347 15.6648 5.83347 15.5C5.83347 15.3906 5.85503 15.2822 5.89691 15.1811C5.93879 15.08 6.00017 14.9881 6.07755 14.9108C6.15493 14.8334 6.2468 14.772 6.3479 14.7301C6.44901 14.6882 6.55737 14.6667 6.66681 14.6667Z" fill="#8210FB"/>
<path fill-rule="evenodd" clip-rule="evenodd" d="M10.0001 14.6667C10.165 14.6667 10.3261 14.7156 10.4631 14.8071C10.6002 14.8987 10.707 15.0288 10.77 15.1811C10.8331 15.3334 10.8496 15.5009 10.8175 15.6626C10.7853 15.8242 10.7059 15.9727 10.5894 16.0893C10.4729 16.2058 10.3244 16.2852 10.1627 16.3173C10.0011 16.3495 9.83351 16.333 9.68124 16.2699C9.52896 16.2068 9.39881 16.1 9.30725 15.963C9.21568 15.826 9.16681 15.6648 9.16681 15.5C9.16681 15.279 9.2546 15.067 9.41088 14.9108C9.56716 14.7545 9.77912 14.6667 10.0001 14.6667Z" fill="#8210FB"/>
<path fill-rule="evenodd" clip-rule="evenodd" d="M13.3335 14.6667C13.4983 14.6667 13.6594 14.7156 13.7965 14.8071C13.9335 14.8987 14.0403 15.0288 14.1034 15.1811C14.1664 15.3334 14.1829 15.5009 14.1508 15.6626C14.1186 15.8242 14.0393 15.9727 13.9227 16.0893C13.8062 16.2058 13.6577 16.2852 13.4961 16.3173C13.3344 16.3495 13.1668 16.333 13.0146 16.2699C12.8623 16.2068 12.7322 16.1 12.6406 15.963C12.549 15.826 12.5001 15.6648 12.5001 15.5C12.5001 15.279 12.5879 15.067 12.7442 14.9108C12.9005 14.7545 13.1125 14.6667 13.3335 14.6667Z" fill="#8210FB"/>
<path d="M17.5208 4.09377C17.2636 3.8351 16.9576 3.63008 16.6206 3.4906C16.2835 3.35113 15.9221 3.27997 15.5573 3.28127H14.4427V2.16669H13.3333V3.27606H6.66667V2.16669H5.5573V3.27606H4.44271C4.07772 3.27606 3.71631 3.34804 3.37916 3.48787C3.04202 3.62771 2.73576 3.83266 2.47791 4.09099C2.22006 4.34932 2.01569 4.65596 1.87649 4.99337C1.73729 5.33077 1.66599 5.69232 1.66667 6.05731V16.0573C1.66667 16.7936 1.95915 17.4997 2.47975 18.0203C3.00036 18.5409 3.70646 18.8334 4.44271 18.8334H15.5573C16.2935 18.8334 16.9996 18.5409 17.5203 18.0203C18.0409 17.4997 18.3333 16.7936 18.3333 16.0573V6.05731C18.3346 5.69253 18.2635 5.33112 18.124 4.99406C17.9845 4.65699 17.7795 4.35098 17.5208 4.09377ZM3.26563 4.87502C3.41976 4.71971 3.60314 4.59647 3.80518 4.51244C4.00721 4.42841 4.2239 4.38524 4.44271 4.38544H5.5573V5.50002H6.66667V4.39065H13.3333V5.50002H14.4427V4.39065H15.5521C15.9941 4.39065 16.418 4.56624 16.7306 4.8788C17.0432 5.19136 17.2188 5.61528 17.2188 6.05731V7.16669H2.77605V6.05731C2.77516 5.83762 2.81799 5.61995 2.90204 5.41697C2.9861 5.214 3.10969 5.02977 3.26563 4.87502ZM16.7344 17.2344C16.5802 17.3897 16.3969 17.5129 16.1948 17.597C15.9928 17.681 15.7761 17.7242 15.5573 17.724H4.44271C4.00069 17.724 3.57676 17.5484 3.2642 17.2358C2.95164 16.9233 2.77605 16.4993 2.77605 16.0573V8.27606H17.224V16.0573C17.2242 16.2761 17.181 16.4928 17.097 16.6948C17.0129 16.8969 16.8897 17.0803 16.7344 17.2344Z" fill="#8210FB"/>
</svg>
