<svg width="17" height="16" viewBox="0 0 17 16" fill="none" xmlns="http://www.w3.org/2000/svg">
<rect x="0.5" width="16" height="16" rx="3" fill="#FFE1D3"/>
<path d="M8.21359 12.3351C8.31907 12.4405 8.46204 12.4996 8.61111 12.4996C8.76018 12.4996 8.90316 12.4405 9.00863 12.3351L11.0712 10.2725C11.1265 10.221 11.1708 10.1589 11.2016 10.0899C11.2323 10.0209 11.2489 9.94641 11.2502 9.87088C11.2515 9.79534 11.2376 9.72032 11.2093 9.65027C11.1811 9.58023 11.1389 9.5166 11.0855 9.46318C11.0321 9.40977 10.9685 9.36766 10.8984 9.33936C10.8284 9.31107 10.7534 9.29718 10.6778 9.29851C10.6023 9.29984 10.5278 9.31637 10.4588 9.34712C10.3898 9.37787 10.3277 9.42219 10.2762 9.47746L9.17364 10.58V4.06216C9.17364 3.91297 9.11438 3.76989 9.00888 3.6644C8.90339 3.5589 8.7603 3.49963 8.61111 3.49963C8.46192 3.49963 8.31884 3.5589 8.21334 3.6644C8.10785 3.76989 8.04858 3.91297 8.04858 4.06216V10.58L6.94602 9.47746C6.83938 9.3781 6.69834 9.324 6.55261 9.32657C6.40687 9.32914 6.26783 9.38818 6.16476 9.49125C6.0617 9.59431 6.00266 9.73336 6.00009 9.87909C5.99752 10.0248 6.05161 10.1659 6.15098 10.2725L8.21359 12.3351Z" fill="#6708CC"/>
</svg>
