<svg width="20" height="21" viewBox="0 0 20 21" fill="none" xmlns="http://www.w3.org/2000/svg">
<path d="M9.19695 7.77722C9.46523 7.77722 9.68325 7.99429 9.68327 8.26257C9.68327 8.53087 9.46525 8.7489 9.19695 8.7489H6.7282C6.45996 8.74887 6.24284 8.53086 6.24284 8.26257C6.24287 7.99431 6.45993 7.77725 6.7282 7.77722H9.19695Z" fill="#676767" stroke="#676767" stroke-width="0.2"/>
<path d="M11.5124 10.2849C11.7805 10.2851 11.9977 10.5021 11.9977 10.7703C11.9977 11.0385 11.7805 11.2564 11.5124 11.2566H6.7282C6.45992 11.2566 6.24284 11.0385 6.24284 10.7703C6.24287 10.502 6.45993 10.2849 6.7282 10.2849H11.5124Z" fill="#676767" stroke="#676767" stroke-width="0.2"/>
<path d="M11.5124 12.7926C11.7805 12.7928 11.9977 13.0098 11.9977 13.278C11.9977 13.5461 11.7805 13.7631 11.5124 13.7633H6.7282C6.45992 13.7633 6.24284 13.5462 6.24284 13.278C6.24287 13.0097 6.45993 12.7926 6.7282 12.7926H11.5124Z" fill="#676767" stroke="#676767" stroke-width="0.2"/>
<path d="M15.5824 2.01721V2.01819C15.6171 2.01731 15.6521 2.01674 15.6868 2.01819C16.5445 2.05394 17.2114 2.77634 17.179 3.63342V15.7858H17.1781C17.1937 16.0672 17.0417 16.3307 16.7894 16.4576C16.7099 16.4995 16.6211 16.5182 16.5316 16.5133C16.528 16.5134 16.5244 16.5132 16.5208 16.5133C16.5186 16.5131 16.5163 16.5135 16.514 16.5133V16.5123C16.331 16.5138 16.1551 16.4459 16.0218 16.3199V16.3209L14.9368 15.3424L14.8646 15.3971V18.0621H14.8636C14.8779 18.336 14.7377 18.5952 14.4993 18.7321L14.4954 18.734C14.2428 18.8698 13.9317 18.8111 13.7445 18.5963L12.6868 17.6266L11.3802 18.7906C11.1381 19.007 10.788 19.0341 10.5189 18.8717L10.4085 18.7906L9.11946 17.6266L7.83138 18.7906L7.8304 18.7916C7.69757 18.9089 7.52797 18.9764 7.35091 18.983H7.3431C7.16354 18.9805 6.9917 18.9115 6.8597 18.7897V18.7906L5.55208 17.6256L4.47786 18.5934L4.47884 18.5944C4.26006 18.8045 3.936 18.8614 3.65853 18.7389L3.6556 18.7379C3.3937 18.6157 3.21463 18.3652 3.18392 18.0778L3.18294 18.0699V5.88342H3.18392C3.22788 4.92277 4.0086 4.1604 4.97005 4.13928H5.49837V3.63342C5.49837 2.68105 6.37844 2.01731 7.28743 2.01721H15.5824ZM4.83919 5.22913C4.52558 5.30079 4.28562 5.56688 4.25521 5.89709V17.3033L5.00814 16.6373C5.26098 16.4104 5.62599 16.3751 5.91439 16.5348L6.03255 16.6149L6.03743 16.6188L7.34505 17.7828L8.63411 16.6198L8.63997 16.6139H8.64095C8.88619 16.4176 9.22175 16.3925 9.48958 16.5397L9.59993 16.6139L9.60775 16.6198H9.60677L10.8763 17.7819L12.1839 16.6188C12.4576 16.3682 12.8804 16.379 13.1409 16.6432L13.7923 17.2799V5.89026C13.7923 5.70565 13.7374 5.53058 13.6439 5.40588C13.5525 5.28428 13.4256 5.21057 13.2669 5.21057H4.97884L4.83919 5.22913ZM7.28743 3.0885C7.10489 3.08855 6.91976 3.14755 6.78353 3.24768C6.649 3.3466 6.56966 3.47913 6.56966 3.63342V4.13928H13.2679C14.2183 4.13956 14.8646 4.97931 14.8646 5.89026V14.1715C14.97 14.162 15.0561 14.1611 15.1312 14.1823C15.2502 14.2158 15.3248 14.2937 15.3949 14.3639L16.1077 15.0192V3.61877L16.1087 3.5426C16.0913 3.27454 15.8602 3.0712 15.5921 3.0885L15.5824 3.08948V3.0885H7.28743Z" fill="#676767" stroke="#676767" stroke-width="0.3"/>
</svg>
