<svg width="12" height="12" viewBox="0 0 12 12" fill="none" xmlns="http://www.w3.org/2000/svg">
<path d="M10.7796 5.12997L10.2823 5.01039C10.1741 4.53832 9.98786 4.08971 9.72752 3.67258L9.97956 3.24944C10.0482 3.13416 10.0296 2.98709 9.93493 2.89239L9.10894 2.0664C9.01424 1.972 8.86749 1.95311 8.75189 2.02177L8.32875 2.27381C7.91163 2.01347 7.46301 1.82721 6.99094 1.71907L6.87136 1.22175C6.83874 1.09157 6.72173 1 6.58726 1H5.41539C5.28092 1 5.16392 1.09155 5.13129 1.22175L5.01171 1.71907C4.53964 1.82721 4.09103 2.01347 3.6739 2.27381L3.25076 2.02177C3.13548 1.95309 2.98841 1.9717 2.89371 2.0664L2.06769 2.89237C1.97299 2.98707 1.95439 3.13412 2.02305 3.24942L2.27509 3.67256C2.01475 4.08969 1.8285 4.5383 1.72036 5.01037L1.22303 5.12995C1.09286 5.16257 1.00128 5.27958 1.00128 5.41405V6.58592C1.00128 6.72039 1.09284 6.83769 1.2233 6.87002L1.72063 6.9896C1.79273 7.30241 1.90124 7.60294 2.04059 7.89118C2.25576 7.67514 3.3364 6.58986 3.41407 6.5123C3.41024 6.49257 3.36838 6.1173 3.36726 6.04421C3.34234 4.55131 4.54481 3.36354 6.00244 3.36354C7.47005 3.36354 8.64033 4.54693 8.6348 6.00913C8.62851 7.36139 7.61923 8.51259 6.20959 8.61787C6.14861 8.62256 5.87291 8.66323 5.48862 8.58748L4.11363 9.96248C4.40077 10.101 4.70017 10.2088 5.01169 10.2806L5.13127 10.7782C5.1639 10.9084 5.2809 11 5.41537 11H6.58724C6.72171 11 6.83872 10.9084 6.87134 10.7782L6.99092 10.2809C7.46299 10.1728 7.91161 9.98652 8.32873 9.72618L8.75187 9.97822C8.86659 10.0469 9.01393 10.028 9.10892 9.93359L9.93491 9.1076C10.0296 9.0129 10.0482 8.86585 9.97954 8.75055L9.7275 8.32741C9.98814 7.91028 10.1741 7.46167 10.2822 6.98931L10.7793 6.87002C10.9097 6.83769 11.0013 6.72039 11.0013 6.58592V5.41405C11.0013 5.2796 10.9098 5.16257 10.7796 5.12997Z" fill="white"/>
<path d="M7.98367 5.46443C7.95794 5.36356 7.88006 5.28421 7.77964 5.25671C7.67925 5.22917 7.57199 5.25786 7.49837 5.33146L6.82983 6.00004C6.6013 6.22857 6.22981 6.22857 6.00127 6.00004C5.77296 5.77173 5.77296 5.39981 6.00127 5.17148L6.6701 4.50265C6.7437 4.42905 6.77213 4.32161 6.7446 4.22127C6.71706 4.12092 6.63781 4.04292 6.53696 4.01729C5.30075 3.70313 4.18827 4.50837 3.98424 5.62037C3.91872 5.98659 3.9479 6.35136 4.06776 6.68724C3.90106 6.85396 1.32625 9.42874 1.25704 9.49798C0.913421 9.8416 0.913421 10.4006 1.26247 10.7497C1.60825 11.0775 2.13783 11.0913 2.50329 10.7443L5.31403 7.93351C5.76415 8.09416 6.26614 8.09089 6.7574 7.91755C7.64257 7.60521 8.26208 6.55697 7.98367 5.46443Z" fill="white"/>
</svg>
