<svg width="20" height="21" viewBox="0 0 20 21" fill="none" xmlns="http://www.w3.org/2000/svg">
<path d="M10.0001 14.7568C10.2684 14.7568 10.4921 14.5664 10.5441 14.3135L10.5558 14.2012C10.5558 13.9329 10.3653 13.7092 10.1124 13.6572L10.0001 13.6455M10.0001 14.7568V13.6455M10.0001 14.7568L9.8878 14.7451C9.67111 14.7007 9.50071 14.5301 9.45616 14.3135L9.44444 14.2012C9.44444 13.8943 9.69328 13.6455 10.0001 13.6455M10.0001 14.7568V13.6455" fill="#676767" stroke="#676767" stroke-width="16"/>
<path d="M13.6772 18.8333H6.32327L7.99049 15.5H12.0088L13.6772 18.8333ZM8.12104 17.7222H11.8783L11.3222 16.6111H8.67715L8.12104 17.7222Z" fill="#676767"/>
<path d="M15 17.7222H5C4.69317 17.7222 4.44444 17.9709 4.44444 18.2777C4.44444 18.5845 4.69317 18.8333 5 18.8333H15C15.3068 18.8333 15.5556 18.5845 15.5556 18.2777C15.5556 17.9709 15.3068 17.7222 15 17.7222Z" fill="#676767"/>
<path d="M15.5553 2.01624C17.1697 2.01624 18.4828 3.32966 18.4831 4.94397V13.8336C18.4829 15.448 17.1697 16.7614 15.5553 16.7614H4.44401C2.82981 16.7611 1.51645 15.4478 1.51628 13.8336V4.94397C1.51651 3.3298 2.82984 2.01647 4.44401 2.01624H15.5553ZM4.44401 3.42737C3.60831 3.4276 2.92764 4.10827 2.92741 4.94397V13.8336C2.92759 14.6694 3.60827 15.35 4.44401 15.3502H15.5553C16.3913 15.3502 17.0718 14.6695 17.0719 13.8336V4.94397C17.0717 4.10812 16.3912 3.42737 15.5553 3.42737H4.44401Z" fill="#676767" stroke="#676767" stroke-width="0.3"/>
<path d="M11.9788 5.02506L14.0222 4.81617C14.42 4.77561 14.7755 5.06506 14.8161 5.46284L15.025 7.50617C15.0561 7.81117 14.8338 8.08395 14.5288 8.11506C14.2238 8.14617 13.9511 7.92395 13.92 7.61895L13.7505 5.96061L12.0922 6.13006C11.7872 6.16117 11.5144 5.93895 11.4833 5.63395C11.4522 5.32895 11.6738 5.05617 11.9788 5.02506Z" fill="#676767"/>
<path d="M5.1605 10.2656C4.92995 10.0628 4.90772 9.71168 5.1105 9.48113L7.34939 6.93613C7.64939 6.59502 8.08217 6.39446 8.53717 6.38724H8.56439C9.00939 6.38724 9.43772 6.57224 9.74328 6.89668L10.5711 7.77724C10.6683 7.88057 10.7988 7.93724 10.9399 7.93724H10.9427C11.0855 7.93668 11.2172 7.87835 11.3138 7.77335L13.6272 5.25391L14.4455 6.00557L12.1322 8.52502C11.8288 8.85557 11.3977 9.04613 10.9494 9.04891C10.5055 9.03335 10.0683 8.86557 9.76161 8.53891L8.93384 7.65891C8.83439 7.55335 8.71383 7.50335 8.5555 7.49891C8.41106 7.50113 8.27939 7.56224 8.18384 7.67113L5.94495 10.2161C5.74217 10.4467 5.39106 10.4689 5.1605 10.2661V10.2656Z" fill="#676767"/>
<path d="M17.9273 11.6407V13.0519H2.07183V11.6407H17.9273Z" fill="#676767" stroke="#676767" stroke-width="0.3"/>
</svg>
