<svg width="20" height="21" viewBox="0 0 20 21" fill="none" xmlns="http://www.w3.org/2000/svg">
<path d="M13.5824 13.144C14.9125 13.3416 15.9262 13.7079 16.6185 14.3354C17.3279 14.9788 17.8088 15.9952 17.8089 17.7251C17.8089 17.9227 17.6481 18.0835 17.4505 18.0835H1.94076C1.74332 18.0833 1.58333 17.9226 1.58333 17.7251C1.58341 15.9951 2.06423 14.9788 2.77376 14.3354C3.46591 13.708 4.47914 13.3416 5.80892 13.144C6.14289 14.4489 6.75063 15.6616 7.58529 16.7046C8.25528 17.5418 9.55833 17.1162 9.6849 16.105L9.69564 16.0142L9.70736 16.105C9.83388 17.1163 11.137 17.5417 11.807 16.7046C12.6416 15.6617 13.2484 14.4488 13.5824 13.144Z" stroke="#676767" stroke-width="1.5"/>
<path d="M9.69593 2.91663C11.4952 2.91663 12.9537 4.37513 12.9537 6.17444C12.9537 7.8299 12.5342 9.17706 11.9108 10.0875C11.2897 10.9945 10.4982 11.4362 9.69593 11.4362C8.89362 11.4361 8.10212 10.9946 7.48109 10.0875C6.8577 9.17706 6.43812 7.8299 6.43812 6.17444C6.43815 4.37515 7.89664 2.91666 9.69593 2.91663Z" stroke="#676767" stroke-width="1.5"/>
</svg>
