<svg width="18" height="17" viewBox="0 0 18 17" fill="none" xmlns="http://www.w3.org/2000/svg">
<path d="M8.99967 0.107056C9.42669 0.107056 11.5139 0.121013 13.4948 0.389282C14.4844 0.523315 15.4519 0.721264 16.1735 1.01428C16.5343 1.1608 16.8376 1.33316 17.0514 1.53577C17.266 1.73912 17.3931 1.976 17.3932 2.24963C17.3932 2.52345 17.2662 2.76102 17.0514 2.96448C16.8376 3.16706 16.5342 3.33849 16.1735 3.48499C15.4519 3.77805 14.4845 3.97594 13.4948 4.10999C11.5139 4.37825 9.42669 4.39319 8.99967 4.39319C8.57192 4.39318 6.48591 4.37819 4.50553 4.10999C3.51571 3.97593 2.54755 3.7781 1.82585 3.48499C1.46543 3.33857 1.16261 3.1669 0.948893 2.96448C0.73417 2.76102 0.607096 2.52345 0.607096 2.24963C0.607197 1.97596 0.734256 1.73914 0.948893 1.53577C1.16266 1.33324 1.46524 1.16076 1.82585 1.01428C2.54756 0.721171 3.5157 0.523335 4.50553 0.389282C6.48589 0.12109 8.57193 0.107063 8.99967 0.107056ZM8.99967 1.26819C6.86166 1.2682 5.18488 1.42988 3.98014 1.64026C3.37786 1.74545 2.89386 1.86304 2.52995 1.97815C2.22681 2.07405 2.01103 2.16833 1.87858 2.24963C2.011 2.33098 2.22659 2.42612 2.52995 2.52209C2.89385 2.6372 3.37791 2.75481 3.98014 2.85999C5.18488 3.07035 6.86169 3.23204 8.99967 3.23206C11.138 3.23206 12.8154 3.07039 14.0202 2.85999C14.6226 2.75478 15.1064 2.63723 15.4704 2.52209C15.7734 2.42623 15.9883 2.33091 16.1208 2.24963C15.9883 2.1684 15.7732 2.07394 15.4704 1.97815C15.1064 1.86301 14.6226 1.74548 14.0202 1.64026C12.8154 1.42985 11.138 1.26819 8.99967 1.26819Z" fill="#676767" stroke="#676767" stroke-width="0.12"/>
<path d="M16.8122 5.8363C17.1327 5.8363 17.3931 6.09589 17.3932 6.41638C17.3932 6.69019 17.2662 6.92777 17.0514 7.13123C16.8376 7.33381 16.5342 7.50523 16.1735 7.65173C15.4519 7.94479 14.4845 8.14269 13.4948 8.27673C11.5139 8.545 9.42669 8.55994 8.99967 8.55994C8.57192 8.55993 6.48591 8.54493 4.50553 8.27673C3.51571 8.14268 2.54755 7.94484 1.82585 7.65173C1.46543 7.50531 1.16261 7.33365 0.948893 7.13123C0.73417 6.92777 0.607096 6.69019 0.607096 6.41638C0.607272 6.096 0.866795 5.83648 1.18717 5.8363C1.47679 5.8363 1.71433 6.04811 1.75846 6.32556C1.79286 6.36311 1.85579 6.40965 1.95378 6.4613C2.05724 6.51583 2.19443 6.57419 2.36588 6.63416C2.70884 6.75411 3.18473 6.87927 3.79264 6.99255C5.0084 7.2191 6.74832 7.39879 8.99967 7.3988C11.2509 7.3988 12.9909 7.21907 14.2067 6.99255C14.8147 6.87926 15.2914 6.75412 15.6344 6.63416C15.8058 6.57419 15.9431 6.51583 16.0465 6.4613C16.1447 6.40957 16.2065 6.36216 16.2409 6.32458C16.2854 6.04766 16.523 5.83646 16.8122 5.8363Z" fill="#676767" stroke="#676767" stroke-width="0.12"/>
<path d="M16.8122 10.0029C17.1327 10.0029 17.3931 10.2625 17.3932 10.583C17.3932 10.8568 17.2662 11.0944 17.0514 11.2979C16.8376 11.5004 16.5342 11.6719 16.1735 11.8184C15.4519 12.1114 14.4845 12.3093 13.4948 12.4434C11.5139 12.7116 9.42669 12.7266 8.99967 12.7266C8.57192 12.7266 6.48591 12.7116 4.50553 12.4434C3.51571 12.3093 2.54755 12.1115 1.82585 11.8184C1.46543 11.6719 1.16261 11.5003 0.948893 11.2979C0.73417 11.0944 0.607096 10.8568 0.607096 10.583C0.607272 10.2626 0.866795 10.0031 1.18717 10.0029C1.47679 10.0029 1.71433 10.2147 1.75846 10.4922C1.79286 10.5297 1.85579 10.5763 1.95378 10.6279C2.05724 10.6825 2.19443 10.7408 2.36588 10.8008C2.70884 10.9207 3.18473 11.0459 3.79264 11.1592C5.0084 11.3857 6.74832 11.5654 8.99967 11.5654C11.2509 11.5654 12.9909 11.3857 14.2067 11.1592C14.8147 11.0459 15.2914 10.9207 15.6344 10.8008C15.8058 10.7408 15.9431 10.6825 16.0465 10.6279C16.1447 10.5762 16.2065 10.5288 16.2409 10.4912C16.2854 10.2143 16.523 10.0031 16.8122 10.0029Z" fill="#676767" stroke="#676767" stroke-width="0.12"/>
<path d="M16.8122 1.66956C17.1327 1.66956 17.3931 1.92915 17.3932 2.24963V14.7496C17.3932 15.0234 17.2662 15.261 17.0514 15.4645C16.8376 15.6671 16.5342 15.8385 16.1735 15.985C15.4519 16.278 14.4845 16.4759 13.4948 16.61C11.5139 16.8783 9.42669 16.8932 8.99967 16.8932C8.57192 16.8932 6.48591 16.8782 4.50553 16.61C3.51571 16.4759 2.54755 16.2781 1.82585 15.985C1.46543 15.8386 1.16261 15.6669 0.948893 15.4645C0.73417 15.261 0.607096 15.0234 0.607096 14.7496V2.24963C0.607272 1.92925 0.866795 1.66973 1.18717 1.66956C1.5077 1.66956 1.76805 1.92915 1.76823 2.24963V14.6666C1.80523 14.7036 1.86678 14.7495 1.96061 14.7985C2.06537 14.8531 2.20429 14.9114 2.37663 14.9713C2.72117 15.0911 3.19768 15.216 3.80534 15.3287C5.02059 15.5542 6.7563 15.732 8.99967 15.7321C11.2432 15.7321 12.9797 15.5542 14.195 15.3287C14.8026 15.216 15.2792 15.091 15.6237 14.9713C15.7959 14.9115 15.934 14.8531 16.0387 14.7985C16.1329 14.7493 16.1951 14.7037 16.2321 14.6666V2.24963C16.2323 1.92926 16.4918 1.66973 16.8122 1.66956Z" fill="#676767" stroke="#676767" stroke-width="0.12"/>
<path d="M4.13894 10.5833C4.52247 10.5833 4.83338 10.2724 4.83338 9.8889C4.83338 9.50537 4.52247 9.19446 4.13894 9.19446C3.75541 9.19446 3.4445 9.50537 3.4445 9.8889C3.4445 10.2724 3.75541 10.5833 4.13894 10.5833Z" fill="#676767"/>
<path d="M4.13894 6.41672C4.52247 6.41672 4.83338 6.10581 4.83338 5.72228C4.83338 5.33875 4.52247 5.02783 4.13894 5.02783C3.75541 5.02783 3.4445 5.33875 3.4445 5.72228C3.4445 6.10581 3.75541 6.41672 4.13894 6.41672Z" fill="#676767"/>
<path d="M4.13894 14.75C4.52247 14.75 4.83338 14.4391 4.83338 14.0555C4.83338 13.672 4.52247 13.3611 4.13894 13.3611C3.75541 13.3611 3.4445 13.672 3.4445 14.0555C3.4445 14.4391 3.75541 14.75 4.13894 14.75Z" fill="#676767"/>
</svg>
