<svg width="140" height="55" viewBox="0 0 140 55" fill="none" xmlns="http://www.w3.org/2000/svg">
<path d="M0 10C0 4.47715 4.47715 0 10 0H55V55H10C4.47715 55 0 50.5228 0 45V10Z" fill="#2B2B2B"/>
<path d="M130 1C134.971 1 139 5.02944 139 10V45C139 49.9706 134.971 54 130 54H55V1H130Z" stroke="#2B2B2B" stroke-width="2"/>
<path d="M16.1206 15L26.2411 39.6671H18.8833L17.7838 37.0453H7.91698L6.84573 39.6671H6L16.1206 15ZM23.9294 36.2278L16.1206 17.2271L13.3296 23.9929L18.3758 36.2278H23.9294ZM12.8786 25.0924L8.28347 36.2278H17.4737L12.8786 25.0924ZM24.3241 37.0453H18.6859L19.4471 38.8495H25.0289L24.3241 37.0453Z" fill="white"/>
<path d="M35.5659 37.0453H30.1251V38.8495H35.5659V37.0453ZM35.5659 21.4557H30.1251V36.2278H35.5659V21.4557ZM29.3075 20.6382H43.7977V21.4557H36.4117V36.2278H49.6332V37.0453H36.4117V38.8495H49.6332V39.6671H29.3075V20.6382Z" fill="white"/>
<mask id="path-4-outside-1_2410_1386" maskUnits="userSpaceOnUse" x="60" y="15" width="73" height="25" fill="black">
<rect fill="white" x="60" y="15" width="73" height="25"/>
<path d="M65.684 15.9L69.576 25H68.19L67 22.242H62.814L61.68 25H60.308L64.214 15.9H65.684ZM63.248 21.15H66.58L64.984 17.188H64.858L63.248 21.15ZM76.4224 15.9C77.1878 15.9 77.8738 16.0073 78.4804 16.222C79.0964 16.4273 79.6191 16.726 80.0484 17.118C80.4778 17.51 80.8044 17.9907 81.0284 18.56C81.2618 19.1293 81.3784 19.778 81.3784 20.506C81.3784 21.2527 81.2478 21.906 80.9864 22.466C80.7251 23.026 80.3611 23.4927 79.8944 23.866C79.4371 24.2393 78.8864 24.524 78.2424 24.72C77.5984 24.9067 76.8984 25 76.1424 25H73.0484V15.9H76.4224ZM74.3784 23.894H76.2544C76.7958 23.894 77.2998 23.8333 77.7664 23.712C78.2331 23.5907 78.6344 23.3947 78.9704 23.124C79.3064 22.8533 79.5678 22.5033 79.7544 22.074C79.9504 21.6447 80.0484 21.122 80.0484 20.506C80.0484 19.8807 79.9598 19.3487 79.7824 18.91C79.6144 18.462 79.3718 18.098 79.0544 17.818C78.7371 17.5287 78.3544 17.3187 77.9064 17.188C77.4584 17.0573 76.9638 16.992 76.4224 16.992H74.3784V23.894ZM89.4413 15.9L93.3333 25H91.9473L90.7573 22.242H86.5713L85.4373 25H84.0653L87.9713 15.9H89.4413ZM87.0053 21.15H90.3373L88.7413 17.188H88.6153L87.0053 21.15ZM98.4438 15.9L101.216 20.044L104.044 15.9H105.64V25H104.352V19.848L104.38 17.552H104.254L101.468 21.626H100.922L98.1638 17.552H98.0518L98.0658 19.848V25H96.8058V15.9H98.4438ZM60.91 29.9H66.776V31.006H62.254V33.722H66.314V34.814H62.254V37.894H66.972V39H60.91V29.9ZM71.9455 29.9L74.4375 33.498L76.9855 29.9H78.4835L75.3195 34.198L78.8755 39H77.2655L74.3955 34.954L71.5395 39H70.0275L73.5135 34.198L70.3495 29.9H71.9455ZM85.5345 29.9C86.0478 29.9 86.5238 29.9653 86.9625 30.096C87.4011 30.2267 87.7791 30.4133 88.0965 30.656C88.4231 30.8987 88.6751 31.1973 88.8525 31.552C89.0391 31.9067 89.1325 32.3127 89.1325 32.77C89.1325 33.2367 89.0438 33.6473 88.8665 34.002C88.6891 34.3567 88.4418 34.6553 88.1245 34.898C87.8071 35.1407 87.4245 35.3273 86.9765 35.458C86.5378 35.5793 86.0571 35.64 85.5345 35.64H83.7005V39H82.3705V29.9H85.5345ZM83.7005 34.562H85.3525C86.1458 34.562 86.7525 34.4267 87.1725 34.156C87.5925 33.8853 87.8025 33.4233 87.8025 32.77C87.8025 32.1633 87.5925 31.7153 87.1725 31.426C86.7525 31.1273 86.1458 30.978 85.3525 30.978H83.7005V34.562ZM102.1 34.45C102.1 35.15 101.974 35.7893 101.722 36.368C101.47 36.9467 101.12 37.446 100.672 37.866C100.233 38.286 99.7149 38.6127 99.1175 38.846C98.5202 39.07 97.8809 39.182 97.1995 39.182C96.5089 39.182 95.8649 39.07 95.2675 38.846C94.6795 38.6127 94.1615 38.286 93.7135 37.866C93.2749 37.446 92.9295 36.9467 92.6775 36.368C92.4255 35.7893 92.2995 35.15 92.2995 34.45C92.2995 33.75 92.4255 33.1107 92.6775 32.532C92.9295 31.9533 93.2749 31.454 93.7135 31.034C94.1615 30.614 94.6795 30.292 95.2675 30.068C95.8649 29.8347 96.5089 29.718 97.1995 29.718C97.8809 29.718 98.5202 29.8347 99.1175 30.068C99.7149 30.292 100.233 30.614 100.672 31.034C101.12 31.454 101.47 31.9533 101.722 32.532C101.974 33.1107 102.1 33.75 102.1 34.45ZM93.6435 34.45C93.6435 35.0287 93.7369 35.542 93.9235 35.99C94.1195 36.438 94.3762 36.816 94.6935 37.124C95.0202 37.432 95.3982 37.67 95.8275 37.838C96.2569 37.9967 96.7142 38.076 97.1995 38.076C97.6849 38.076 98.1422 37.9967 98.5715 37.838C99.0009 37.67 99.3742 37.432 99.6915 37.124C100.018 36.816 100.275 36.438 100.462 35.99C100.658 35.542 100.756 35.0287 100.756 34.45C100.756 33.8713 100.658 33.358 100.462 32.91C100.275 32.462 100.018 32.084 99.6915 31.776C99.3742 31.468 99.0009 31.2347 98.5715 31.076C98.1422 30.908 97.6849 30.824 97.1995 30.824C96.7142 30.824 96.2569 30.908 95.8275 31.076C95.3982 31.2347 95.0202 31.468 94.6935 31.776C94.3762 32.084 94.1195 32.462 93.9235 32.91C93.7369 33.358 93.6435 33.8713 93.6435 34.45ZM109.523 29.9C109.981 29.9 110.401 29.9607 110.783 30.082C111.175 30.194 111.511 30.362 111.791 30.586C112.071 30.81 112.291 31.0807 112.449 31.398C112.608 31.7153 112.687 32.0747 112.687 32.476C112.687 33.0173 112.519 33.5073 112.183 33.946C111.847 34.3753 111.348 34.6787 110.685 34.856L113.317 39H111.763L109.327 35.094H107.143V39H105.813V29.9H109.523ZM107.143 34.016H109.327C109.925 34.016 110.41 33.8853 110.783 33.624C111.166 33.3627 111.357 32.98 111.357 32.476C111.357 31.972 111.175 31.5987 110.811 31.356C110.447 31.104 109.948 30.978 109.313 30.978H107.143V34.016ZM115.835 29.9H122.611V30.964H119.895V39H118.551V30.964H115.835V29.9ZM131.339 31.566C130.956 31.2953 130.578 31.104 130.205 30.992C129.831 30.8707 129.407 30.81 128.931 30.81C128.576 30.81 128.287 30.852 128.063 30.936C127.839 31.0107 127.661 31.1087 127.531 31.23C127.4 31.3513 127.307 31.4913 127.251 31.65C127.204 31.8087 127.181 31.9627 127.181 32.112C127.181 32.448 127.288 32.728 127.503 32.952C127.727 33.176 128.1 33.3393 128.623 33.442L129.925 33.708C130.69 33.8667 131.297 34.1747 131.745 34.632C132.202 35.0893 132.431 35.7053 132.431 36.48C132.431 36.872 132.347 37.2313 132.179 37.558C132.02 37.8847 131.787 38.1693 131.479 38.412C131.171 38.6547 130.793 38.846 130.345 38.986C129.906 39.1167 129.407 39.182 128.847 39.182C128.511 39.182 128.203 39.168 127.923 39.14C127.652 39.112 127.391 39.0653 127.139 39C126.887 38.9347 126.635 38.8507 126.383 38.748C126.14 38.6453 125.883 38.5193 125.613 38.37L126.061 37.152C126.583 37.4787 127.055 37.7027 127.475 37.824C127.895 37.9453 128.343 38.006 128.819 38.006C129.593 38.006 130.172 37.8613 130.555 37.572C130.947 37.2827 131.143 36.9233 131.143 36.494C131.143 36.0087 131.012 35.6447 130.751 35.402C130.499 35.15 130.069 34.968 129.463 34.856L128.035 34.59C127.363 34.4593 126.84 34.17 126.467 33.722C126.103 33.2647 125.921 32.7467 125.921 32.168C125.921 31.804 125.986 31.4727 126.117 31.174C126.247 30.8753 126.439 30.6187 126.691 30.404C126.952 30.1893 127.269 30.0213 127.643 29.9C128.016 29.7787 128.445 29.718 128.931 29.718C129.528 29.718 130.055 29.774 130.513 29.886C130.97 29.998 131.432 30.208 131.899 30.516L131.339 31.566Z"/>
</mask>
<path d="M65.684 15.9L69.576 25H68.19L67 22.242H62.814L61.68 25H60.308L64.214 15.9H65.684ZM63.248 21.15H66.58L64.984 17.188H64.858L63.248 21.15ZM76.4224 15.9C77.1878 15.9 77.8738 16.0073 78.4804 16.222C79.0964 16.4273 79.6191 16.726 80.0484 17.118C80.4778 17.51 80.8044 17.9907 81.0284 18.56C81.2618 19.1293 81.3784 19.778 81.3784 20.506C81.3784 21.2527 81.2478 21.906 80.9864 22.466C80.7251 23.026 80.3611 23.4927 79.8944 23.866C79.4371 24.2393 78.8864 24.524 78.2424 24.72C77.5984 24.9067 76.8984 25 76.1424 25H73.0484V15.9H76.4224ZM74.3784 23.894H76.2544C76.7958 23.894 77.2998 23.8333 77.7664 23.712C78.2331 23.5907 78.6344 23.3947 78.9704 23.124C79.3064 22.8533 79.5678 22.5033 79.7544 22.074C79.9504 21.6447 80.0484 21.122 80.0484 20.506C80.0484 19.8807 79.9598 19.3487 79.7824 18.91C79.6144 18.462 79.3718 18.098 79.0544 17.818C78.7371 17.5287 78.3544 17.3187 77.9064 17.188C77.4584 17.0573 76.9638 16.992 76.4224 16.992H74.3784V23.894ZM89.4413 15.9L93.3333 25H91.9473L90.7573 22.242H86.5713L85.4373 25H84.0653L87.9713 15.9H89.4413ZM87.0053 21.15H90.3373L88.7413 17.188H88.6153L87.0053 21.15ZM98.4438 15.9L101.216 20.044L104.044 15.9H105.64V25H104.352V19.848L104.38 17.552H104.254L101.468 21.626H100.922L98.1638 17.552H98.0518L98.0658 19.848V25H96.8058V15.9H98.4438ZM60.91 29.9H66.776V31.006H62.254V33.722H66.314V34.814H62.254V37.894H66.972V39H60.91V29.9ZM71.9455 29.9L74.4375 33.498L76.9855 29.9H78.4835L75.3195 34.198L78.8755 39H77.2655L74.3955 34.954L71.5395 39H70.0275L73.5135 34.198L70.3495 29.9H71.9455ZM85.5345 29.9C86.0478 29.9 86.5238 29.9653 86.9625 30.096C87.4011 30.2267 87.7791 30.4133 88.0965 30.656C88.4231 30.8987 88.6751 31.1973 88.8525 31.552C89.0391 31.9067 89.1325 32.3127 89.1325 32.77C89.1325 33.2367 89.0438 33.6473 88.8665 34.002C88.6891 34.3567 88.4418 34.6553 88.1245 34.898C87.8071 35.1407 87.4245 35.3273 86.9765 35.458C86.5378 35.5793 86.0571 35.64 85.5345 35.64H83.7005V39H82.3705V29.9H85.5345ZM83.7005 34.562H85.3525C86.1458 34.562 86.7525 34.4267 87.1725 34.156C87.5925 33.8853 87.8025 33.4233 87.8025 32.77C87.8025 32.1633 87.5925 31.7153 87.1725 31.426C86.7525 31.1273 86.1458 30.978 85.3525 30.978H83.7005V34.562ZM102.1 34.45C102.1 35.15 101.974 35.7893 101.722 36.368C101.47 36.9467 101.12 37.446 100.672 37.866C100.233 38.286 99.7149 38.6127 99.1175 38.846C98.5202 39.07 97.8809 39.182 97.1995 39.182C96.5089 39.182 95.8649 39.07 95.2675 38.846C94.6795 38.6127 94.1615 38.286 93.7135 37.866C93.2749 37.446 92.9295 36.9467 92.6775 36.368C92.4255 35.7893 92.2995 35.15 92.2995 34.45C92.2995 33.75 92.4255 33.1107 92.6775 32.532C92.9295 31.9533 93.2749 31.454 93.7135 31.034C94.1615 30.614 94.6795 30.292 95.2675 30.068C95.8649 29.8347 96.5089 29.718 97.1995 29.718C97.8809 29.718 98.5202 29.8347 99.1175 30.068C99.7149 30.292 100.233 30.614 100.672 31.034C101.12 31.454 101.47 31.9533 101.722 32.532C101.974 33.1107 102.1 33.75 102.1 34.45ZM93.6435 34.45C93.6435 35.0287 93.7369 35.542 93.9235 35.99C94.1195 36.438 94.3762 36.816 94.6935 37.124C95.0202 37.432 95.3982 37.67 95.8275 37.838C96.2569 37.9967 96.7142 38.076 97.1995 38.076C97.6849 38.076 98.1422 37.9967 98.5715 37.838C99.0009 37.67 99.3742 37.432 99.6915 37.124C100.018 36.816 100.275 36.438 100.462 35.99C100.658 35.542 100.756 35.0287 100.756 34.45C100.756 33.8713 100.658 33.358 100.462 32.91C100.275 32.462 100.018 32.084 99.6915 31.776C99.3742 31.468 99.0009 31.2347 98.5715 31.076C98.1422 30.908 97.6849 30.824 97.1995 30.824C96.7142 30.824 96.2569 30.908 95.8275 31.076C95.3982 31.2347 95.0202 31.468 94.6935 31.776C94.3762 32.084 94.1195 32.462 93.9235 32.91C93.7369 33.358 93.6435 33.8713 93.6435 34.45ZM109.523 29.9C109.981 29.9 110.401 29.9607 110.783 30.082C111.175 30.194 111.511 30.362 111.791 30.586C112.071 30.81 112.291 31.0807 112.449 31.398C112.608 31.7153 112.687 32.0747 112.687 32.476C112.687 33.0173 112.519 33.5073 112.183 33.946C111.847 34.3753 111.348 34.6787 110.685 34.856L113.317 39H111.763L109.327 35.094H107.143V39H105.813V29.9H109.523ZM107.143 34.016H109.327C109.925 34.016 110.41 33.8853 110.783 33.624C111.166 33.3627 111.357 32.98 111.357 32.476C111.357 31.972 111.175 31.5987 110.811 31.356C110.447 31.104 109.948 30.978 109.313 30.978H107.143V34.016ZM115.835 29.9H122.611V30.964H119.895V39H118.551V30.964H115.835V29.9ZM131.339 31.566C130.956 31.2953 130.578 31.104 130.205 30.992C129.831 30.8707 129.407 30.81 128.931 30.81C128.576 30.81 128.287 30.852 128.063 30.936C127.839 31.0107 127.661 31.1087 127.531 31.23C127.4 31.3513 127.307 31.4913 127.251 31.65C127.204 31.8087 127.181 31.9627 127.181 32.112C127.181 32.448 127.288 32.728 127.503 32.952C127.727 33.176 128.1 33.3393 128.623 33.442L129.925 33.708C130.69 33.8667 131.297 34.1747 131.745 34.632C132.202 35.0893 132.431 35.7053 132.431 36.48C132.431 36.872 132.347 37.2313 132.179 37.558C132.02 37.8847 131.787 38.1693 131.479 38.412C131.171 38.6547 130.793 38.846 130.345 38.986C129.906 39.1167 129.407 39.182 128.847 39.182C128.511 39.182 128.203 39.168 127.923 39.14C127.652 39.112 127.391 39.0653 127.139 39C126.887 38.9347 126.635 38.8507 126.383 38.748C126.14 38.6453 125.883 38.5193 125.613 38.37L126.061 37.152C126.583 37.4787 127.055 37.7027 127.475 37.824C127.895 37.9453 128.343 38.006 128.819 38.006C129.593 38.006 130.172 37.8613 130.555 37.572C130.947 37.2827 131.143 36.9233 131.143 36.494C131.143 36.0087 131.012 35.6447 130.751 35.402C130.499 35.15 130.069 34.968 129.463 34.856L128.035 34.59C127.363 34.4593 126.84 34.17 126.467 33.722C126.103 33.2647 125.921 32.7467 125.921 32.168C125.921 31.804 125.986 31.4727 126.117 31.174C126.247 30.8753 126.439 30.6187 126.691 30.404C126.952 30.1893 127.269 30.0213 127.643 29.9C128.016 29.7787 128.445 29.718 128.931 29.718C129.528 29.718 130.055 29.774 130.513 29.886C130.97 29.998 131.432 30.208 131.899 30.516L131.339 31.566Z" fill="#2B2B2B"/>
<path d="M65.684 15.9L65.8679 15.8214L65.816 15.7H65.684V15.9ZM69.576 25V25.2H69.8791L69.7599 24.9214L69.576 25ZM68.19 25L68.0064 25.0792L68.0585 25.2H68.19V25ZM67 22.242L67.1836 22.1628L67.1315 22.042H67V22.242ZM62.814 22.242V22.042H62.68L62.629 22.1659L62.814 22.242ZM61.68 25V25.2H61.814L61.865 25.0761L61.68 25ZM60.308 25L60.1242 24.9211L60.0045 25.2H60.308V25ZM64.214 15.9V15.7H64.0822L64.0302 15.8211L64.214 15.9ZM63.248 21.15L63.0627 21.0747L62.9508 21.35H63.248V21.15ZM66.58 21.15V21.35H66.8762L66.7655 21.0753L66.58 21.15ZM64.984 17.188L65.1695 17.1133L65.1191 16.988H64.984V17.188ZM64.858 17.188V16.988H64.7234L64.6727 17.1127L64.858 17.188ZM65.684 15.9L65.5001 15.9786L69.3921 25.0786L69.576 25L69.7599 24.9214L65.8679 15.8214L65.684 15.9ZM69.576 25V24.8H68.19V25V25.2H69.576V25ZM68.19 25L68.3736 24.9208L67.1836 22.1628L67 22.242L66.8164 22.3212L68.0064 25.0792L68.19 25ZM67 22.242V22.042H62.814V22.242V22.442H67V22.242ZM62.814 22.242L62.629 22.1659L61.495 24.9239L61.68 25L61.865 25.0761L62.999 22.3181L62.814 22.242ZM61.68 25V24.8H60.308V25V25.2H61.68V25ZM60.308 25L60.4918 25.0789L64.3978 15.9789L64.214 15.9L64.0302 15.8211L60.1242 24.9211L60.308 25ZM64.214 15.9V16.1H65.684V15.9V15.7H64.214V15.9ZM63.248 21.15V21.35H66.58V21.15V20.95H63.248V21.15ZM66.58 21.15L66.7655 21.0753L65.1695 17.1133L64.984 17.188L64.7985 17.2627L66.3945 21.2247L66.58 21.15ZM64.984 17.188V16.988H64.858V17.188V17.388H64.984V17.188ZM64.858 17.188L64.6727 17.1127L63.0627 21.0747L63.248 21.15L63.4333 21.2253L65.0433 17.2633L64.858 17.188ZM78.4804 16.222L78.4137 16.4106L78.4172 16.4117L78.4804 16.222ZM80.0484 17.118L79.9136 17.2657L80.0484 17.118ZM81.0284 18.56L80.8423 18.6332L80.8434 18.6358L81.0284 18.56ZM80.9864 22.466L80.8052 22.3814L80.9864 22.466ZM79.8944 23.866L79.7695 23.7098L79.768 23.7111L79.8944 23.866ZM78.2424 24.72L78.2981 24.9121L78.3007 24.9113L78.2424 24.72ZM73.0484 25H72.8484V25.2H73.0484V25ZM73.0484 15.9V15.7H72.8484V15.9H73.0484ZM74.3784 23.894H74.1784V24.094H74.3784V23.894ZM77.7664 23.712L77.7161 23.5184L77.7664 23.712ZM78.9704 23.124L78.845 22.9682L78.9704 23.124ZM79.7544 22.074L79.5725 21.9909L79.571 21.9943L79.7544 22.074ZM79.7824 18.91L79.5951 18.9802L79.597 18.985L79.7824 18.91ZM79.0544 17.818L78.9197 17.9658L78.9221 17.968L79.0544 17.818ZM77.9064 17.188L77.9624 16.996L77.9064 17.188ZM74.3784 16.992V16.792H74.1784V16.992H74.3784ZM76.4224 15.9V16.1C77.1692 16.1 77.8321 16.2047 78.4137 16.4105L78.4804 16.222L78.5472 16.0335C77.9154 15.8099 77.2063 15.7 76.4224 15.7V15.9ZM78.4804 16.222L78.4172 16.4117C79.0098 16.6093 79.5072 16.8947 79.9136 17.2657L80.0484 17.118L80.1833 16.9703C79.731 16.5573 79.1831 16.2454 78.5437 16.0323L78.4804 16.222ZM80.0484 17.118L79.9136 17.2657C80.3192 17.636 80.6289 18.0908 80.8423 18.6332L81.0284 18.56L81.2146 18.4868C80.98 17.8906 80.6364 17.384 80.1833 16.9703L80.0484 17.118ZM81.0284 18.56L80.8434 18.6358C81.0652 19.1771 81.1784 19.7993 81.1784 20.506H81.3784H81.5784C81.5784 19.7567 81.4583 19.0815 81.2135 18.4842L81.0284 18.56ZM81.3784 20.506H81.1784C81.1784 21.2294 81.0519 21.8528 80.8052 22.3814L80.9864 22.466L81.1677 22.5506C81.4437 21.9592 81.5784 21.2759 81.5784 20.506H81.3784ZM80.9864 22.466L80.8052 22.3814C80.5564 22.9145 80.2113 23.3564 79.7695 23.7098L79.8944 23.866L80.0194 24.0222C80.5109 23.629 80.8938 23.1375 81.1677 22.5506L80.9864 22.466ZM79.8944 23.866L79.768 23.7111C79.3334 24.0658 78.8068 24.3392 78.1842 24.5287L78.2424 24.72L78.3007 24.9113C78.9661 24.7088 79.5408 24.4129 80.0209 24.0209L79.8944 23.866ZM78.2424 24.72L78.1868 24.5279C77.563 24.7087 76.882 24.8 76.1424 24.8V25V25.2C76.9149 25.2 77.6339 25.1046 78.2981 24.9121L78.2424 24.72ZM76.1424 25V24.8H73.0484V25V25.2H76.1424V25ZM73.0484 25H73.2484V15.9H73.0484H72.8484V25H73.0484ZM73.0484 15.9V16.1H76.4224V15.9V15.7H73.0484V15.9ZM74.3784 23.894V24.094H76.2544V23.894V23.694H74.3784V23.894ZM76.2544 23.894V24.094C76.8107 24.094 77.3318 24.0317 77.8168 23.9056L77.7664 23.712L77.7161 23.5184C77.2677 23.635 76.7808 23.694 76.2544 23.694V23.894ZM77.7664 23.712L77.8168 23.9056C78.3076 23.7779 78.7354 23.5702 79.0959 23.2798L78.9704 23.124L78.845 22.9682C78.5335 23.2191 78.1586 23.4034 77.7161 23.5184L77.7664 23.712ZM78.9704 23.124L79.0959 23.2798C79.4592 22.9871 79.7394 22.6101 79.9379 22.1537L79.7544 22.074L79.571 21.9943C79.3961 22.3965 79.1537 22.7196 78.845 22.9682L78.9704 23.124ZM79.7544 22.074L79.9364 22.1571C80.1473 21.695 80.2484 21.1423 80.2484 20.506H80.0484H79.8484C79.8484 21.1017 79.7536 21.5944 79.5725 21.9909L79.7544 22.074ZM80.0484 20.506H80.2484C80.2484 19.8628 80.1574 19.3038 79.9679 18.835L79.7824 18.91L79.597 18.985C79.7622 19.3935 79.8484 19.8985 79.8484 20.506H80.0484ZM79.7824 18.91L79.9697 18.8398C79.7917 18.3652 79.5317 17.9724 79.1868 17.668L79.0544 17.818L78.9221 17.968C79.2118 18.2236 79.4372 18.5588 79.5952 18.9802L79.7824 18.91ZM79.0544 17.818L79.1892 17.6702C78.8474 17.3586 78.4371 17.1345 77.9624 16.996L77.9064 17.188L77.8504 17.38C78.2717 17.5029 78.6268 17.6987 78.9197 17.9658L79.0544 17.818ZM77.9064 17.188L77.9624 16.996C77.4936 16.8593 76.9798 16.792 76.4224 16.792V16.992V17.192C76.9478 17.192 77.4233 17.2554 77.8504 17.38L77.9064 17.188ZM76.4224 16.992V16.792H74.3784V16.992V17.192H76.4224V16.992ZM74.3784 16.992H74.1784V23.894H74.3784H74.5784V16.992H74.3784ZM89.4413 15.9L89.6252 15.8214L89.5733 15.7H89.4413V15.9ZM93.3333 25V25.2H93.6364L93.5172 24.9214L93.3333 25ZM91.9473 25L91.7637 25.0792L91.8158 25.2H91.9473V25ZM90.7573 22.242L90.941 22.1628L90.8889 22.042H90.7573V22.242ZM86.5713 22.242V22.042H86.4373L86.3864 22.1659L86.5713 22.242ZM85.4373 25V25.2H85.5714L85.6223 25.0761L85.4373 25ZM84.0653 25L83.8816 24.9211L83.7619 25.2H84.0653V25ZM87.9713 15.9V15.7H87.8395L87.7876 15.8211L87.9713 15.9ZM87.0053 21.15L86.8201 21.0747L86.7082 21.35H87.0053V21.15ZM90.3373 21.15V21.35H90.6335L90.5229 21.0753L90.3373 21.15ZM88.7413 17.188L88.9269 17.1133L88.8764 16.988H88.7413V17.188ZM88.6153 17.188V16.988H88.4807L88.4301 17.1127L88.6153 17.188ZM89.4413 15.9L89.2575 15.9786L93.1495 25.0786L93.3333 25L93.5172 24.9214L89.6252 15.8214L89.4413 15.9ZM93.3333 25V24.8H91.9473V25V25.2H93.3333V25ZM91.9473 25L92.131 24.9208L90.941 22.1628L90.7573 22.242L90.5737 22.3212L91.7637 25.0792L91.9473 25ZM90.7573 22.242V22.042H86.5713V22.242V22.442H90.7573V22.242ZM86.5713 22.242L86.3864 22.1659L85.2524 24.9239L85.4373 25L85.6223 25.0761L86.7563 22.3181L86.5713 22.242ZM85.4373 25V24.8H84.0653V25V25.2H85.4373V25ZM84.0653 25L84.2491 25.0789L88.1551 15.9789L87.9713 15.9L87.7876 15.8211L83.8816 24.9211L84.0653 25ZM87.9713 15.9V16.1H89.4413V15.9V15.7H87.9713V15.9ZM87.0053 21.15V21.35H90.3373V21.15V20.95H87.0053V21.15ZM90.3373 21.15L90.5229 21.0753L88.9269 17.1133L88.7413 17.188L88.5558 17.2627L90.1518 21.2247L90.3373 21.15ZM88.7413 17.188V16.988H88.6153V17.188V17.388H88.7413V17.188ZM88.6153 17.188L88.4301 17.1127L86.8201 21.0747L87.0053 21.15L87.1906 21.2253L88.8006 17.2633L88.6153 17.188ZM98.4438 15.9L98.61 15.7888L98.5506 15.7H98.4438V15.9ZM101.216 20.044L101.05 20.1552L101.214 20.4012L101.381 20.1567L101.216 20.044ZM104.044 15.9V15.7H103.938L103.879 15.7873L104.044 15.9ZM105.64 15.9H105.84V15.7H105.64V15.9ZM105.64 25V25.2H105.84V25H105.64ZM104.352 25H104.152V25.2H104.352V25ZM104.352 19.848L104.152 19.8456V19.848H104.352ZM104.38 17.552L104.58 17.5544L104.582 17.352H104.38V17.552ZM104.254 17.552V17.352H104.148L104.089 17.4391L104.254 17.552ZM101.468 21.626V21.826H101.573L101.633 21.7389L101.468 21.626ZM100.922 21.626L100.756 21.7381L100.816 21.826H100.922V21.626ZM98.1638 17.552L98.3294 17.4399L98.2699 17.352H98.1638V17.552ZM98.0518 17.552V17.352H97.8506L97.8518 17.5532L98.0518 17.552ZM98.0658 19.848H98.2658L98.2658 19.8468L98.0658 19.848ZM98.0658 25V25.2H98.2658V25H98.0658ZM96.8058 25H96.6058V25.2H96.8058V25ZM96.8058 15.9V15.7H96.6058V15.9H96.8058ZM98.4438 15.9L98.2775 16.0112L101.05 20.1552L101.216 20.044L101.382 19.9328L98.61 15.7888L98.4438 15.9ZM101.216 20.044L101.381 20.1567L104.209 16.0127L104.044 15.9L103.879 15.7873L101.051 19.9313L101.216 20.044ZM104.044 15.9V16.1H105.64V15.9V15.7H104.044V15.9ZM105.64 15.9H105.44V25H105.64H105.84V15.9H105.64ZM105.64 25V24.8H104.352V25V25.2H105.64V25ZM104.352 25H104.552V19.848H104.352H104.152V25H104.352ZM104.352 19.848L104.552 19.8504L104.58 17.5544L104.38 17.552L104.18 17.5496L104.152 19.8456L104.352 19.848ZM104.38 17.552V17.352H104.254V17.552V17.752H104.38V17.552ZM104.254 17.552L104.089 17.4391L101.303 21.5131L101.468 21.626L101.633 21.7389L104.419 17.6649L104.254 17.552ZM101.468 21.626V21.426H100.922V21.626V21.826H101.468V21.626ZM100.922 21.626L101.087 21.5139L98.3294 17.4399L98.1638 17.552L97.9982 17.6641L100.756 21.7381L100.922 21.626ZM98.1638 17.552V17.352H98.0518V17.552V17.752H98.1638V17.552ZM98.0518 17.552L97.8518 17.5532L97.8658 19.8492L98.0658 19.848L98.2658 19.8468L98.2518 17.5508L98.0518 17.552ZM98.0658 19.848H97.8658V25H98.0658H98.2658V19.848H98.0658ZM98.0658 25V24.8H96.8058V25V25.2H98.0658V25ZM96.8058 25H97.0058V15.9H96.8058H96.6058V25H96.8058ZM96.8058 15.9V16.1H98.4438V15.9V15.7H96.8058V15.9ZM60.91 29.9V29.7H60.71V29.9H60.91ZM66.776 29.9H66.976V29.7H66.776V29.9ZM66.776 31.006V31.206H66.976V31.006H66.776ZM62.254 31.006V30.806H62.054V31.006H62.254ZM62.254 33.722H62.054V33.922H62.254V33.722ZM66.314 33.722H66.514V33.522H66.314V33.722ZM66.314 34.814V35.014H66.514V34.814H66.314ZM62.254 34.814V34.614H62.054V34.814H62.254ZM62.254 37.894H62.054V38.094H62.254V37.894ZM66.972 37.894H67.172V37.694H66.972V37.894ZM66.972 39V39.2H67.172V39H66.972ZM60.91 39H60.71V39.2H60.91V39ZM60.91 29.9V30.1H66.776V29.9V29.7H60.91V29.9ZM66.776 29.9H66.576V31.006H66.776H66.976V29.9H66.776ZM66.776 31.006V30.806H62.254V31.006V31.206H66.776V31.006ZM62.254 31.006H62.054V33.722H62.254H62.454V31.006H62.254ZM62.254 33.722V33.922H66.314V33.722V33.522H62.254V33.722ZM66.314 33.722H66.114V34.814H66.314H66.514V33.722H66.314ZM66.314 34.814V34.614H62.254V34.814V35.014H66.314V34.814ZM62.254 34.814H62.054V37.894H62.254H62.454V34.814H62.254ZM62.254 37.894V38.094H66.972V37.894V37.694H62.254V37.894ZM66.972 37.894H66.772V39H66.972H67.172V37.894H66.972ZM66.972 39V38.8H60.91V39V39.2H66.972V39ZM60.91 39H61.11V29.9H60.91H60.71V39H60.91ZM71.9455 29.9L72.1099 29.7861L72.0503 29.7H71.9455V29.9ZM74.4375 33.498L74.2731 33.6119L74.4357 33.8466L74.6007 33.6136L74.4375 33.498ZM76.9855 29.9V29.7H76.8821L76.8223 29.7844L76.9855 29.9ZM78.4835 29.9L78.6446 30.0186L78.8791 29.7H78.4835V29.9ZM75.3195 34.198L75.1584 34.0794L75.0709 34.1984L75.1588 34.317L75.3195 34.198ZM78.8755 39V39.2H79.2725L79.0362 38.881L78.8755 39ZM77.2655 39L77.1024 39.1157L77.1622 39.2H77.2655V39ZM74.3955 34.954L74.5586 34.8383L74.3951 34.6078L74.2321 34.8387L74.3955 34.954ZM71.5395 39V39.2H71.6431L71.7029 39.1153L71.5395 39ZM70.0275 39L69.8657 38.8825L69.6352 39.2H70.0275V39ZM73.5135 34.198L73.6753 34.3155L73.7612 34.1972L73.6746 34.0794L73.5135 34.198ZM70.3495 29.9V29.7H69.9539L70.1884 30.0186L70.3495 29.9ZM71.9455 29.9L71.7811 30.0139L74.2731 33.6119L74.4375 33.498L74.6019 33.3841L72.1099 29.7861L71.9455 29.9ZM74.4375 33.498L74.6007 33.6136L77.1487 30.0156L76.9855 29.9L76.8223 29.7844L74.2743 33.3824L74.4375 33.498ZM76.9855 29.9V30.1H78.4835V29.9V29.7H76.9855V29.9ZM78.4835 29.9L78.3224 29.7814L75.1584 34.0794L75.3195 34.198L75.4806 34.3166L78.6446 30.0186L78.4835 29.9ZM75.3195 34.198L75.1588 34.317L78.7148 39.119L78.8755 39L79.0362 38.881L75.4802 34.079L75.3195 34.198ZM78.8755 39V38.8H77.2655V39V39.2H78.8755V39ZM77.2655 39L77.4286 38.8843L74.5586 34.8383L74.3955 34.954L74.2324 35.0697L77.1024 39.1157L77.2655 39ZM74.3955 34.954L74.2321 34.8387L71.3761 38.8847L71.5395 39L71.7029 39.1153L74.5589 35.0693L74.3955 34.954ZM71.5395 39V38.8H70.0275V39V39.2H71.5395V39ZM70.0275 39L70.1893 39.1175L73.6753 34.3155L73.5135 34.198L73.3517 34.0805L69.8657 38.8825L70.0275 39ZM73.5135 34.198L73.6746 34.0794L70.5106 29.7814L70.3495 29.9L70.1884 30.0186L73.3524 34.3166L73.5135 34.198ZM70.3495 29.9V30.1H71.9455V29.9V29.7H70.3495V29.9ZM86.9625 30.096L86.9054 30.2877L86.9625 30.096ZM88.0965 30.656L87.975 30.8149L87.9772 30.8165L88.0965 30.656ZM88.8525 31.552L88.6735 31.6415L88.6755 31.6451L88.8525 31.552ZM88.8665 34.002L88.6876 33.9126L88.8665 34.002ZM88.1245 34.898L88.003 34.7391L88.1245 34.898ZM86.9765 35.458L87.0298 35.6508L87.0325 35.65L86.9765 35.458ZM83.7005 35.64V35.44H83.5005V35.64H83.7005ZM83.7005 39V39.2H83.9005V39H83.7005ZM82.3705 39H82.1705V39.2H82.3705V39ZM82.3705 29.9V29.7H82.1705V29.9H82.3705ZM83.7005 34.562H83.5005V34.762H83.7005V34.562ZM87.1725 34.156L87.2808 34.3241L87.1725 34.156ZM87.1725 31.426L87.0566 31.589L87.059 31.5907L87.1725 31.426ZM83.7005 30.978V30.778H83.5005V30.978H83.7005ZM85.5345 29.9V30.1C86.0308 30.1 86.4873 30.1632 86.9054 30.2877L86.9625 30.096L87.0196 29.9043C86.5603 29.7675 86.0648 29.7 85.5345 29.7V29.9ZM86.9625 30.096L86.9054 30.2877C87.3241 30.4124 87.6795 30.5889 87.975 30.8149L88.0965 30.656L88.218 30.4971C87.8787 30.2377 87.4782 30.0409 87.0196 29.9043L86.9625 30.096ZM88.0965 30.656L87.9772 30.8165C88.2794 31.041 88.5107 31.3156 88.6736 31.6414L88.8525 31.552L89.0314 31.4626C88.8396 31.0791 88.5669 30.7563 88.2157 30.4955L88.0965 30.656ZM88.8525 31.552L88.6755 31.6451C88.845 31.9673 88.9325 32.3405 88.9325 32.77H89.1325H89.3325C89.3325 32.2848 89.2332 31.8461 89.0295 31.4589L88.8525 31.552ZM89.1325 32.77H88.9325C88.9325 33.2111 88.8488 33.5902 88.6876 33.9126L88.8665 34.002L89.0454 34.0914C89.2388 33.7045 89.3325 33.2622 89.3325 32.77H89.1325ZM88.8665 34.002L88.6876 33.9126C88.524 34.2398 88.2963 34.5148 88.003 34.7391L88.1245 34.898L88.246 35.0569C88.5873 34.7959 88.8543 34.4735 89.0454 34.0914L88.8665 34.002ZM88.1245 34.898L88.003 34.7391C87.7082 34.9645 87.3487 35.1411 86.9205 35.266L86.9765 35.458L87.0325 35.65C87.5002 35.5136 87.906 35.3168 88.246 35.0569L88.1245 34.898ZM86.9765 35.458L86.9232 35.2652C86.5042 35.3811 86.0417 35.44 85.5345 35.44V35.64V35.84C86.0725 35.84 86.5714 35.7775 87.0298 35.6508L86.9765 35.458ZM85.5345 35.64V35.44H83.7005V35.64V35.84H85.5345V35.64ZM83.7005 35.64H83.5005V39H83.7005H83.9005V35.64H83.7005ZM83.7005 39V38.8H82.3705V39V39.2H83.7005V39ZM82.3705 39H82.5705V29.9H82.3705H82.1705V39H82.3705ZM82.3705 29.9V30.1H85.5345V29.9V29.7H82.3705V29.9ZM83.7005 34.562V34.762H85.3525V34.562V34.362H83.7005V34.562ZM85.3525 34.562V34.762C86.1636 34.762 86.8147 34.6245 87.2808 34.3241L87.1725 34.156L87.0641 33.9879C86.6902 34.2288 86.128 34.362 85.3525 34.362V34.562ZM87.1725 34.156L87.2808 34.3241C87.7752 34.0055 88.0025 33.4678 88.0025 32.77H87.8025H87.6025C87.6025 33.3788 87.4097 33.7652 87.0641 33.9879L87.1725 34.156ZM87.8025 32.77H88.0025C88.0025 32.1118 87.7709 31.5954 87.2859 31.2613L87.1725 31.426L87.059 31.5907C87.414 31.8353 87.6025 32.2148 87.6025 32.77H87.8025ZM87.1725 31.426L87.2884 31.263C86.8207 30.9305 86.1664 30.778 85.3525 30.778V30.978V31.178C86.1252 31.178 86.6842 31.3242 87.0566 31.589L87.1725 31.426ZM85.3525 30.978V30.778H83.7005V30.978V31.178H85.3525V30.978ZM83.7005 30.978H83.5005V34.562H83.7005H83.9005V30.978H83.7005ZM101.722 36.368L101.905 36.4479L101.722 36.368ZM100.672 37.866L100.535 37.7201L100.533 37.7215L100.672 37.866ZM99.1175 38.846L99.1878 39.0333L99.1903 39.0323L99.1175 38.846ZM95.2675 38.846L95.1937 39.0319L95.1973 39.0333L95.2675 38.846ZM93.7135 37.866L93.5752 38.0105L93.5767 38.0119L93.7135 37.866ZM92.6775 36.368L92.8609 36.2881L92.6775 36.368ZM92.6775 32.532L92.8609 32.6119L92.6775 32.532ZM93.7135 31.034L93.5767 30.8881L93.5752 30.8895L93.7135 31.034ZM95.2675 30.068L95.3387 30.2549L95.3403 30.2543L95.2675 30.068ZM99.1175 30.068L99.0448 30.2543L99.0473 30.2553L99.1175 30.068ZM100.672 31.034L100.533 31.1785L100.535 31.1799L100.672 31.034ZM101.722 32.532L101.905 32.4521L101.722 32.532ZM93.9235 35.99L93.7389 36.0669L93.7403 36.0702L93.9235 35.99ZM94.6935 37.124L94.5542 37.2675L94.5563 37.2695L94.6935 37.124ZM95.8275 37.838L95.7546 38.0243L95.7582 38.0256L95.8275 37.838ZM98.5715 37.838L98.6409 38.0256L98.6444 38.0242L98.5715 37.838ZM99.6915 37.124L99.5543 36.9785L99.5522 36.9805L99.6915 37.124ZM100.462 35.99L100.278 35.9098L100.277 35.9131L100.462 35.99ZM100.462 32.91L100.277 32.9869L100.278 32.9902L100.462 32.91ZM99.6915 31.776L99.5522 31.9195L99.5543 31.9215L99.6915 31.776ZM98.5715 31.076L98.4986 31.2623L98.5022 31.2636L98.5715 31.076ZM95.8275 31.076L95.8969 31.2636L95.9004 31.2622L95.8275 31.076ZM94.6935 31.776L94.5563 31.6305L94.5542 31.6325L94.6935 31.776ZM93.9235 32.91L93.7403 32.8298L93.7389 32.8331L93.9235 32.91ZM102.1 34.45H101.9C101.9 35.1255 101.778 35.7373 101.538 36.2881L101.722 36.368L101.905 36.4479C102.169 35.8414 102.3 35.1745 102.3 34.45H102.1ZM101.722 36.368L101.538 36.2881C101.297 36.8426 100.962 37.3192 100.535 37.7201L100.672 37.866L100.808 38.0119C101.277 37.5728 101.642 37.0508 101.905 36.4479L101.722 36.368ZM100.672 37.866L100.533 37.7215C100.114 38.1224 99.6191 38.4354 99.0448 38.6597L99.1175 38.846L99.1903 39.0323C99.8106 38.79 100.351 38.4496 100.81 38.0105L100.672 37.866ZM99.1175 38.846L99.0473 38.6587C98.4739 38.8738 97.8585 38.982 97.1995 38.982V39.182V39.382C97.9032 39.382 98.5665 39.2662 99.1878 39.0333L99.1175 38.846ZM97.1995 39.182V38.982C96.5309 38.982 95.9108 38.8736 95.3378 38.6587L95.2675 38.846L95.1973 39.0333C95.8189 39.2664 96.4869 39.382 97.1995 39.382V39.182ZM95.2675 38.846L95.3413 38.6601C94.7759 38.4357 94.2795 38.1224 93.8503 37.7201L93.7135 37.866L93.5767 38.0119C94.0436 38.4496 94.5831 38.7896 95.1938 39.0319L95.2675 38.846ZM93.7135 37.866L93.8518 37.7215C93.4331 37.3206 93.1027 36.8435 92.8609 36.2881L92.6775 36.368L92.4942 36.4479C92.7563 37.0499 93.1166 37.5714 93.5752 38.0105L93.7135 37.866ZM92.6775 36.368L92.8609 36.2881C92.621 35.7373 92.4995 35.1255 92.4995 34.45H92.2995H92.0995C92.0995 35.1745 92.2301 35.8414 92.4942 36.4479L92.6775 36.368ZM92.2995 34.45H92.4995C92.4995 33.7745 92.621 33.1627 92.8609 32.6119L92.6775 32.532L92.4942 32.4521C92.2301 33.0586 92.0995 33.7255 92.0995 34.45H92.2995ZM92.6775 32.532L92.8609 32.6119C93.1027 32.0565 93.4331 31.5794 93.8518 31.1785L93.7135 31.034L93.5752 30.8895C93.1166 31.3286 92.7563 31.8501 92.4942 32.4521L92.6775 32.532ZM93.7135 31.034L93.8503 31.1799C94.2789 30.7782 94.7744 30.4699 95.3387 30.2549L95.2675 30.068L95.1963 29.8811C94.5846 30.1141 94.0442 30.4498 93.5767 30.8881L93.7135 31.034ZM95.2675 30.068L95.3403 30.2543C95.9127 30.0307 96.5318 29.918 97.1995 29.918V29.718V29.518C96.4859 29.518 95.817 29.6386 95.1948 29.8817L95.2675 30.068ZM97.1995 29.718V29.918C97.8575 29.918 98.472 30.0306 99.0448 30.2543L99.1175 30.068L99.1903 29.8817C98.5684 29.6388 97.9042 29.518 97.1995 29.518V29.718ZM99.1175 30.068L99.0473 30.2553C99.6206 30.4702 100.115 30.7781 100.533 31.1785L100.672 31.034L100.81 30.8895C100.351 30.4499 99.8091 30.1138 99.1878 29.8807L99.1175 30.068ZM100.672 31.034L100.535 31.1799C100.962 31.5808 101.297 32.0574 101.538 32.6119L101.722 32.532L101.905 32.4521C101.642 31.8492 101.277 31.3272 100.808 30.8881L100.672 31.034ZM101.722 32.532L101.538 32.6119C101.778 33.1627 101.9 33.7745 101.9 34.45H102.1H102.3C102.3 33.7255 102.169 33.0586 101.905 32.4521L101.722 32.532ZM93.6435 34.45H93.4435C93.4435 35.0501 93.5403 35.5903 93.7389 36.0669L93.9235 35.99L94.1081 35.9131C93.9334 35.4937 93.8435 35.0072 93.8435 34.45H93.6435ZM93.9235 35.99L93.7403 36.0702C93.9456 36.5394 94.2164 36.9396 94.5542 37.2675L94.6935 37.124L94.8328 36.9805C94.536 36.6924 94.2935 36.3366 94.1068 35.9098L93.9235 35.99ZM94.6935 37.124L94.5563 37.2695C94.9021 37.5956 95.3021 37.8472 95.7547 38.0242L95.8275 37.838L95.9004 37.6518C95.4943 37.4928 95.1383 37.2684 94.8307 36.9785L94.6935 37.124ZM95.8275 37.838L95.7582 38.0256C96.211 38.193 96.692 38.276 97.1995 38.276V38.076V37.876C96.7364 37.876 96.3027 37.8004 95.8969 37.6504L95.8275 37.838ZM97.1995 38.076V38.276C97.7071 38.276 98.188 38.193 98.6409 38.0256L98.5715 37.838L98.5022 37.6504C98.0964 37.8004 97.6626 37.876 97.1995 37.876V38.076ZM98.5715 37.838L98.6444 38.0242C99.0974 37.847 99.4936 37.5948 99.8308 37.2675L99.6915 37.124L99.5522 36.9805C99.2548 37.2692 98.9043 37.493 98.4986 37.6518L98.5715 37.838ZM99.6915 37.124L99.8287 37.2695C100.177 36.9407 100.45 36.5387 100.646 36.0669L100.462 35.99L100.277 35.9131C100.1 36.3373 99.8589 36.6913 99.5543 36.9785L99.6915 37.124ZM100.462 35.99L100.645 36.0702C100.854 35.5927 100.956 35.0513 100.956 34.45H100.756H100.556C100.556 35.0061 100.461 35.4913 100.278 35.9098L100.462 35.99ZM100.756 34.45H100.956C100.956 33.8487 100.854 33.3073 100.645 32.8298L100.462 32.91L100.278 32.9902C100.461 33.4087 100.556 33.8939 100.556 34.45H100.756ZM100.462 32.91L100.646 32.8331C100.45 32.3613 100.177 31.9593 99.8287 31.6305L99.6915 31.776L99.5543 31.9215C99.8589 32.2087 100.1 32.5627 100.277 32.9869L100.462 32.91ZM99.6915 31.776L99.8308 31.6325C99.4928 31.3044 99.0954 31.0564 98.6409 30.8884L98.5715 31.076L98.5022 31.2636C98.9063 31.413 99.2556 31.6316 99.5522 31.9195L99.6915 31.776ZM98.5715 31.076L98.6444 30.8898C98.1906 30.7122 97.7085 30.624 97.1995 30.624V30.824V31.024C97.6613 31.024 98.0938 31.1038 98.4986 31.2622L98.5715 31.076ZM97.1995 30.824V30.624C96.6906 30.624 96.2084 30.7122 95.7547 30.8898L95.8275 31.076L95.9004 31.2622C96.3053 31.1038 96.7378 31.024 97.1995 31.024V30.824ZM95.8275 31.076L95.7582 30.8884C95.3041 31.0562 94.9029 31.3037 94.5563 31.6305L94.6935 31.776L94.8307 31.9215C95.1374 31.6323 95.4922 31.4131 95.8969 31.2636L95.8275 31.076ZM94.6935 31.776L94.5542 31.6325C94.2164 31.9604 93.9456 32.3606 93.7403 32.8298L93.9235 32.91L94.1068 32.9902C94.2935 32.5634 94.536 32.2076 94.8328 31.9195L94.6935 31.776ZM93.9235 32.91L93.7389 32.8331C93.5403 33.3097 93.4435 33.8499 93.4435 34.45H93.6435H93.8435C93.8435 33.8928 93.9334 33.4063 94.1081 32.9869L93.9235 32.91ZM110.783 30.082L110.723 30.2727L110.728 30.2743L110.783 30.082ZM111.791 30.586L111.666 30.7422L111.791 30.586ZM112.449 31.398L112.628 31.3086L112.449 31.398ZM112.183 33.946L112.341 34.0693L112.342 34.0676L112.183 33.946ZM110.685 34.856L110.634 34.6628L110.37 34.7332L110.517 34.9632L110.685 34.856ZM113.317 39V39.2H113.681L113.486 38.8928L113.317 39ZM111.763 39L111.594 39.1058L111.652 39.2H111.763V39ZM109.327 35.094L109.497 34.9882L109.438 34.894H109.327V35.094ZM107.143 35.094V34.894H106.943V35.094H107.143ZM107.143 39V39.2H107.343V39H107.143ZM105.813 39H105.613V39.2H105.813V39ZM105.813 29.9V29.7H105.613V29.9H105.813ZM107.143 34.016H106.943V34.216H107.143V34.016ZM110.783 33.624L110.671 33.4588L110.669 33.4602L110.783 33.624ZM110.811 31.356L110.697 31.5205L110.7 31.5224L110.811 31.356ZM107.143 30.978V30.778H106.943V30.978H107.143ZM109.523 29.9V30.1C109.963 30.1 110.362 30.1583 110.723 30.2726L110.783 30.082L110.844 29.8914C110.439 29.763 109.998 29.7 109.523 29.7V29.9ZM110.783 30.082L110.728 30.2743C111.098 30.38 111.41 30.5369 111.666 30.7422L111.791 30.586L111.916 30.4298C111.613 30.1871 111.252 30.008 110.838 29.8897L110.783 30.082ZM111.791 30.586L111.666 30.7422C111.924 30.9483 112.125 31.1963 112.27 31.4874L112.449 31.398L112.628 31.3086C112.456 30.9651 112.219 30.6717 111.916 30.4298L111.791 30.586ZM112.449 31.398L112.27 31.4874C112.414 31.7736 112.487 32.1016 112.487 32.476H112.687H112.887C112.887 32.0477 112.803 31.6571 112.628 31.3086L112.449 31.398ZM112.687 32.476H112.487C112.487 32.9724 112.334 33.4198 112.025 33.8244L112.183 33.946L112.342 34.0676C112.704 33.5948 112.887 33.0623 112.887 32.476H112.687ZM112.183 33.946L112.026 33.8227C111.723 34.2099 111.265 34.4937 110.634 34.6628L110.685 34.856L110.737 35.0492C111.431 34.8636 111.972 34.5407 112.341 34.0693L112.183 33.946ZM110.685 34.856L110.517 34.9632L113.149 39.1072L113.317 39L113.486 38.8928L110.854 34.7488L110.685 34.856ZM113.317 39V38.8H111.763V39V39.2H113.317V39ZM111.763 39L111.933 38.8942L109.497 34.9882L109.327 35.094L109.158 35.1998L111.594 39.1058L111.763 39ZM109.327 35.094V34.894H107.143V35.094V35.294H109.327V35.094ZM107.143 35.094H106.943V39H107.143H107.343V35.094H107.143ZM107.143 39V38.8H105.813V39V39.2H107.143V39ZM105.813 39H106.013V29.9H105.813H105.613V39H105.813ZM105.813 29.9V30.1H109.523V29.9V29.7H105.813V29.9ZM107.143 34.016V34.216H109.327V34.016V33.816H107.143V34.016ZM109.327 34.016V34.216C109.953 34.216 110.482 34.079 110.898 33.7878L110.783 33.624L110.669 33.4602C110.338 33.6916 109.896 33.816 109.327 33.816V34.016ZM110.783 33.624L110.896 33.7892C111.339 33.4869 111.557 33.0393 111.557 32.476H111.357H111.157C111.157 32.9207 110.993 33.2385 110.671 33.4588L110.783 33.624ZM111.357 32.476H111.557C111.557 31.917 111.351 31.4755 110.922 31.1896L110.811 31.356L110.7 31.5224C111 31.7219 111.157 32.027 111.157 32.476H111.357ZM110.811 31.356L110.925 31.1916C110.516 30.9084 109.972 30.778 109.313 30.778V30.978V31.178C109.924 31.178 110.379 31.2996 110.698 31.5204L110.811 31.356ZM109.313 30.978V30.778H107.143V30.978V31.178H109.313V30.978ZM107.143 30.978H106.943V34.016H107.143H107.343V30.978H107.143ZM115.835 29.9V29.7H115.635V29.9H115.835ZM122.611 29.9H122.811V29.7H122.611V29.9ZM122.611 30.964V31.164H122.811V30.964H122.611ZM119.895 30.964V30.764H119.695V30.964H119.895ZM119.895 39V39.2H120.095V39H119.895ZM118.551 39H118.351V39.2H118.551V39ZM118.551 30.964H118.751V30.764H118.551V30.964ZM115.835 30.964H115.635V31.164H115.835V30.964ZM115.835 29.9V30.1H122.611V29.9V29.7H115.835V29.9ZM122.611 29.9H122.411V30.964H122.611H122.811V29.9H122.611ZM122.611 30.964V30.764H119.895V30.964V31.164H122.611V30.964ZM119.895 30.964H119.695V39H119.895H120.095V30.964H119.895ZM119.895 39V38.8H118.551V39V39.2H119.895V39ZM118.551 39H118.751V30.964H118.551H118.351V39H118.551ZM118.551 30.964V30.764H115.835V30.964V31.164H118.551V30.964ZM115.835 30.964H116.035V29.9H115.835H115.635V30.964H115.835ZM131.339 31.566L131.223 31.7293L131.408 31.8603L131.515 31.6601L131.339 31.566ZM130.205 30.992L130.143 31.1823L130.147 31.1836L130.205 30.992ZM128.063 30.936L128.126 31.1259L128.133 31.1233L128.063 30.936ZM127.531 31.23L127.667 31.3766L127.531 31.23ZM127.251 31.65L127.062 31.5833L127.059 31.5936L127.251 31.65ZM127.503 32.952L127.358 33.0904L127.361 33.0934L127.503 32.952ZM128.623 33.442L128.663 33.246L128.661 33.2458L128.623 33.442ZM129.925 33.708L129.965 33.5122L129.965 33.512L129.925 33.708ZM131.745 34.632L131.602 34.772L131.603 34.7734L131.745 34.632ZM132.179 37.558L132.001 37.4665L131.999 37.4706L132.179 37.558ZM131.479 38.412L131.602 38.5691L131.479 38.412ZM130.345 38.986L130.402 39.1777L130.404 39.1769L130.345 38.986ZM127.923 39.14L127.902 39.3389L127.903 39.339L127.923 39.14ZM127.139 39L127.189 38.8064L127.139 39ZM126.383 38.748L126.305 38.9322L126.307 38.9332L126.383 38.748ZM125.613 38.37L125.425 38.301L125.366 38.4621L125.516 38.5451L125.613 38.37ZM126.061 37.152L126.167 36.9824L125.958 36.8519L125.873 37.083L126.061 37.152ZM127.475 37.824L127.53 37.6319L127.475 37.824ZM130.555 37.572L130.436 37.4111L130.434 37.4125L130.555 37.572ZM130.751 35.402L130.609 35.5435L130.615 35.5486L130.751 35.402ZM129.463 34.856L129.426 35.0526L129.426 35.0527L129.463 34.856ZM128.035 34.59L127.996 34.7863L127.998 34.7866L128.035 34.59ZM126.467 33.722L126.31 33.8466L126.313 33.85L126.467 33.722ZM126.117 31.174L126.3 31.2542L126.117 31.174ZM126.691 30.404L126.564 30.2494L126.561 30.2518L126.691 30.404ZM130.513 29.886L130.465 30.0803L130.513 29.886ZM131.899 30.516L132.075 30.6101L132.161 30.4494L132.009 30.3491L131.899 30.516ZM131.339 31.566L131.454 31.4027C131.057 31.122 130.66 30.9198 130.262 30.8004L130.205 30.992L130.147 31.1836C130.496 31.2882 130.855 31.4687 131.223 31.7293L131.339 31.566ZM130.205 30.992L130.266 30.8018C129.869 30.6728 129.423 30.61 128.931 30.61V30.81V31.01C129.39 31.01 129.793 31.0686 130.143 31.1822L130.205 30.992ZM128.931 30.81V30.61C128.562 30.61 128.247 30.6533 127.992 30.7487L128.063 30.936L128.133 31.1233C128.326 31.0507 128.589 31.01 128.931 31.01V30.81ZM128.063 30.936L127.999 30.7463C127.757 30.8272 127.552 30.9375 127.395 31.0834L127.531 31.23L127.667 31.3766C127.771 31.2799 127.921 31.1942 128.126 31.1257L128.063 30.936ZM127.531 31.23L127.395 31.0834C127.242 31.2254 127.129 31.3924 127.062 31.5834L127.251 31.65L127.439 31.7166C127.484 31.5902 127.558 31.4772 127.667 31.3766L127.531 31.23ZM127.251 31.65L127.059 31.5936C127.007 31.7686 126.981 31.9416 126.981 32.112H127.181H127.381C127.381 31.9837 127.401 31.8487 127.443 31.7064L127.251 31.65ZM127.181 32.112H126.981C126.981 32.4949 127.105 32.8259 127.358 33.0904L127.503 32.952L127.647 32.8136C127.471 32.6301 127.381 32.4011 127.381 32.112H127.181ZM127.503 32.952L127.361 33.0934C127.627 33.3588 128.046 33.5326 128.584 33.6383L128.623 33.442L128.661 33.2458C128.154 33.1461 127.827 32.9932 127.644 32.8106L127.503 32.952ZM128.623 33.442L128.583 33.638L129.885 33.904L129.925 33.708L129.965 33.512L128.663 33.246L128.623 33.442ZM129.925 33.708L129.884 33.9038C130.619 34.0562 131.187 34.3487 131.602 34.772L131.745 34.632L131.888 34.492C131.406 34.0006 130.761 33.6771 129.965 33.5122L129.925 33.708ZM131.745 34.632L131.603 34.7734C132.016 35.186 132.231 35.7471 132.231 36.48H132.431H132.631C132.631 35.6635 132.388 34.9927 131.886 34.4906L131.745 34.632ZM132.431 36.48H132.231C132.231 36.8424 132.153 37.17 132.001 37.4665L132.179 37.558L132.356 37.6495C132.54 37.2926 132.631 36.9016 132.631 36.48H132.431ZM132.179 37.558L131.999 37.4706C131.854 37.768 131.641 38.0294 131.355 38.2549L131.479 38.412L131.602 38.5691C131.932 38.3092 132.186 38.0014 132.359 37.6454L132.179 37.558ZM131.479 38.412L131.355 38.2549C131.069 38.4798 130.714 38.661 130.285 38.7951L130.345 38.986L130.404 39.1769C130.871 39.031 131.272 38.8295 131.602 38.5691L131.479 38.412ZM130.345 38.986L130.288 38.7943C129.871 38.9184 129.391 38.982 128.847 38.982V39.182V39.382C129.422 39.382 129.941 39.3149 130.402 39.1777L130.345 38.986ZM128.847 39.182V38.982C128.516 38.982 128.215 38.9682 127.943 38.941L127.923 39.14L127.903 39.339C128.19 39.3678 128.505 39.382 128.847 39.382V39.182ZM127.923 39.14L127.943 38.9411C127.682 38.914 127.431 38.8691 127.189 38.8064L127.139 39L127.088 39.1936C127.351 39.2616 127.622 39.31 127.902 39.3389L127.923 39.14ZM127.139 39L127.189 38.8064C126.946 38.7434 126.702 38.6622 126.458 38.5628L126.383 38.748L126.307 38.9332C126.567 39.0391 126.827 39.1259 127.088 39.1936L127.139 39ZM126.383 38.748L126.461 38.5638C126.225 38.4643 125.975 38.3414 125.709 38.1949L125.613 38.37L125.516 38.5451C125.792 38.6972 126.055 38.8264 126.305 38.9322L126.383 38.748ZM125.613 38.37L125.8 38.439L126.248 37.221L126.061 37.152L125.873 37.083L125.425 38.301L125.613 38.37ZM126.061 37.152L125.955 37.3216C126.487 37.6544 126.976 37.888 127.419 38.0161L127.475 37.824L127.53 37.6319C127.134 37.5173 126.679 37.3029 126.167 36.9824L126.061 37.152ZM127.475 37.824L127.419 38.0161C127.859 38.1431 128.326 38.206 128.819 38.206V38.006V37.806C128.36 37.806 127.931 37.7475 127.53 37.6319L127.475 37.824ZM128.819 38.006V38.206C129.612 38.206 130.242 38.0589 130.675 37.7315L130.555 37.572L130.434 37.4125C130.102 37.6638 129.574 37.806 128.819 37.806V38.006ZM130.555 37.572L130.673 37.7329C131.109 37.4117 131.343 36.996 131.343 36.494H131.143H130.943C130.943 36.8506 130.785 37.1536 130.436 37.4111L130.555 37.572ZM131.143 36.494H131.343C131.343 35.9739 131.202 35.5481 130.887 35.2554L130.751 35.402L130.615 35.5486C130.822 35.7412 130.943 36.0435 130.943 36.494H131.143ZM130.751 35.402L130.892 35.2606C130.597 34.9658 130.12 34.7739 129.499 34.6593L129.463 34.856L129.426 35.0527C130.019 35.1621 130.4 35.3342 130.609 35.5434L130.751 35.402ZM129.463 34.856L129.499 34.6594L128.071 34.3934L128.035 34.59L127.998 34.7866L129.426 35.0526L129.463 34.856ZM128.035 34.59L128.073 34.3937C127.438 34.2702 126.959 34.0006 126.62 33.594L126.467 33.722L126.313 33.85C126.721 34.3394 127.287 34.6485 127.996 34.7863L128.035 34.59ZM126.467 33.722L126.623 33.5975C126.287 33.1751 126.121 32.7009 126.121 32.168H125.921H125.721C125.721 32.7924 125.918 33.3542 126.31 33.8465L126.467 33.722ZM125.921 32.168H126.121C126.121 31.8284 126.181 31.5248 126.3 31.2542L126.117 31.174L125.933 31.0938C125.79 31.4206 125.721 31.7796 125.721 32.168H125.921ZM126.117 31.174L126.3 31.2542C126.418 30.9837 126.591 30.7516 126.82 30.5562L126.691 30.404L126.561 30.2518C126.286 30.4858 126.076 30.767 125.933 31.0938L126.117 31.174ZM126.691 30.404L126.818 30.5585C127.057 30.3621 127.351 30.205 127.704 30.0902L127.643 29.9L127.581 29.7098C127.188 29.8376 126.847 30.0166 126.564 30.2495L126.691 30.404ZM127.643 29.9L127.704 30.0902C128.054 29.9767 128.462 29.918 128.931 29.918V29.718V29.518C128.429 29.518 127.978 29.5806 127.581 29.7098L127.643 29.9ZM128.931 29.718V29.918C129.516 29.918 130.027 29.9729 130.465 30.0803L130.513 29.886L130.56 29.6917C130.084 29.5751 129.54 29.518 128.931 29.518V29.718ZM130.513 29.886L130.465 30.0803C130.896 30.1859 131.337 30.3852 131.788 30.6829L131.899 30.516L132.009 30.3491C131.527 30.0308 131.044 29.8101 130.56 29.6917L130.513 29.886ZM131.899 30.516L131.722 30.4219L131.162 31.4719L131.339 31.566L131.515 31.6601L132.075 30.6101L131.899 30.516Z" fill="#2B2B2B" mask="url(#path-4-outside-1_2410_1386)"/>
</svg>
