<svg width="20" height="21" viewBox="0 0 20 21" fill="none" xmlns="http://www.w3.org/2000/svg">
<path fill-rule="evenodd" clip-rule="evenodd" d="M1.66667 10.5C1.66667 5.89814 5.3981 2.16669 9.99999 2.16669C14.6019 2.16669 18.3333 5.89814 18.3333 10.5C18.3333 15.1019 14.6019 18.8334 9.99999 18.8334C5.3981 18.8334 1.66667 15.1019 1.66667 10.5ZM9.99999 3.44874C6.10615 3.44874 2.94872 6.60619 2.94872 10.5C2.94872 14.3938 6.10615 17.5513 9.99999 17.5513C13.8938 17.5513 17.0513 14.3938 17.0513 10.5C17.0513 6.60619 13.8938 3.44874 9.99999 3.44874Z" fill="#676767"/>
<path fill-rule="evenodd" clip-rule="evenodd" d="M9.11966 8.25214C8.82305 8.25214 8.52141 8.52086 8.52141 8.91881C8.52141 9.22014 8.58607 9.32886 8.61848 9.37014C8.65694 9.41912 8.73392 9.48014 8.93971 9.55358L11.5141 10.4516C11.8153 10.5589 12.1595 10.7271 12.4166 11.0563C12.6794 11.3929 12.7864 11.8125 12.7864 12.2949C12.7864 13.3442 11.9742 14.2436 10.906 14.2436H9.29915C8.13228 14.2436 7.23079 13.2628 7.23079 12.1069C7.23079 11.7528 7.51782 11.4658 7.87182 11.4658C8.22587 11.4658 8.51284 11.7528 8.51284 12.1069C8.51284 12.6091 8.89346 12.9616 9.29915 12.9616H10.906C11.2053 12.9616 11.5043 12.6986 11.5043 12.2949C11.5043 11.9995 11.4404 11.8893 11.4061 11.8454C11.3663 11.7944 11.2878 11.7321 11.086 11.6601L8.51156 10.762C8.21443 10.6563 7.86864 10.4911 7.61018 10.1619C7.34561 9.82506 7.23936 9.40383 7.23936 8.91881C7.23936 7.88086 8.04879 6.97009 9.11966 6.97009H10.7265C11.8935 6.97009 12.7949 7.95091 12.7949 9.10686C12.7949 9.46086 12.5079 9.74788 12.1539 9.74788C11.7999 9.74788 11.5128 9.46086 11.5128 9.10686C11.5128 8.60465 11.1323 8.25214 10.7265 8.25214H9.11966Z" fill="#676767"/>
<path fill-rule="evenodd" clip-rule="evenodd" d="M10.0085 6.11542C10.3625 6.11542 10.6496 6.40239 10.6496 6.75644V14.4573C10.6496 14.8113 10.3625 15.0983 10.0085 15.0983C9.65449 15.0983 9.36751 14.8113 9.36751 14.4573V6.75644C9.36751 6.40239 9.65449 6.11542 10.0085 6.11542Z" fill="#676767"/>
</svg>
