<svg width="20" height="19" viewBox="0 0 20 19" fill="none" xmlns="http://www.w3.org/2000/svg">
<path d="M10.0001 0.283569C12.4617 0.283624 14.776 1.24228 16.5167 2.98279C18.2575 4.72356 19.2169 7.03857 19.2169 9.50037C19.2169 10.2258 19.1319 10.9483 18.965 11.6478L18.9532 11.6967L18.9044 11.6849L17.8595 11.4349L17.8116 11.4232L17.8224 11.3754C17.968 10.7652 18.0421 10.1341 18.0421 9.50037C18.0421 5.06585 14.4346 1.45751 10.0001 1.4574C7.72394 1.4574 5.59867 2.40685 4.08899 4.04724L4.5636 3.98083L4.61243 3.974L4.61926 4.0238L4.76965 5.08728L4.77649 5.13708L4.72668 5.14392L2.28625 5.48669L2.23743 5.49451L2.22961 5.4447L1.88684 3.00525L1.88 2.95544L1.92981 2.94861L2.99329 2.79919L3.04309 2.79236L3.04993 2.84119L3.12317 3.36462C4.8586 1.41497 7.33957 0.283569 10.0001 0.283569Z" fill="#676767" stroke="#676767" stroke-width="0.1"/>
<path d="M1.15072 7.10144L2.1888 7.37585L2.23763 7.38855L2.22494 7.4364C2.04785 8.10575 1.95737 8.80029 1.95736 9.49988C1.95736 13.9345 5.56574 17.5428 10.0003 17.5428C12.3856 17.5428 14.5829 16.5142 16.098 14.743L15.5257 14.8134L15.4759 14.8192L15.4701 14.7704L15.3392 13.704L15.3324 13.6542L15.3822 13.6483L17.8577 13.3436L17.9076 13.3378L17.9134 13.3876L18.2269 15.9384L18.2327 15.9882L18.1839 15.994L17.1175 16.1249L17.0677 16.1307L17.0618 16.0819L16.9906 15.5028C16.3085 16.2961 15.4952 16.9742 14.5853 17.4969C13.1964 18.2949 11.6109 18.7166 10.0003 18.7167C7.53861 18.7167 5.2235 17.7581 3.48275 16.0175C1.74202 14.2767 0.783529 11.9616 0.783529 9.49988C0.78354 8.69908 0.886159 7.90392 1.08919 7.1366L1.10189 7.08777L1.15072 7.10144Z" fill="#676767" stroke="#676767" stroke-width="0.1"/>
<path d="M6.47176 11.7339L9.41317 13.4507V9.66553L6.47176 7.94971V11.7339ZM10.587 9.66553V13.4507L13.5284 11.7339V7.94971L10.587 9.66553ZM7.04891 6.92822L10.0001 8.64795L12.9503 6.92822L10.0001 5.20752L7.04891 6.92822ZM14.7022 12.4097L14.6778 12.4233L10.0255 15.1372L10.0001 15.1519L9.97469 15.1372L5.32235 12.4233L5.29793 12.4097V6.59131L5.32235 6.57666L9.97469 3.86279L10.0001 3.84814L10.0255 3.86279L14.6778 6.57666L14.7022 6.59131V12.4097Z" fill="#676767" stroke="#676767" stroke-width="0.1"/>
</svg>
