<svg width="18" height="17" viewBox="0 0 18 17" fill="none" xmlns="http://www.w3.org/2000/svg">
<path fill-rule="evenodd" clip-rule="evenodd" d="M0.666666 8.50003C0.666666 3.89814 4.3981 0.166687 8.99999 0.166687C13.6019 0.166687 17.3333 3.89814 17.3333 8.50003C17.3333 13.1019 13.6019 16.8334 8.99999 16.8334C4.3981 16.8334 0.666666 13.1019 0.666666 8.50003ZM8.99999 1.44874C5.10615 1.44874 1.94872 4.60619 1.94872 8.50003C1.94872 12.3938 5.10615 15.5513 8.99999 15.5513C12.8938 15.5513 16.0513 12.3938 16.0513 8.50003C16.0513 4.60619 12.8938 1.44874 8.99999 1.44874Z" fill="#676767"/>
<path fill-rule="evenodd" clip-rule="evenodd" d="M8.11966 6.25214C7.82305 6.25214 7.52141 6.52086 7.52141 6.91881C7.52141 7.22014 7.58607 7.32886 7.61848 7.37014C7.65694 7.41912 7.73392 7.48014 7.93971 7.55358L10.5141 8.45163C10.8153 8.55886 11.1595 8.72711 11.4166 9.05634C11.6794 9.39286 11.7864 9.81255 11.7864 10.2949C11.7864 11.3442 10.9742 12.2436 9.90602 12.2436H8.29915C7.13228 12.2436 6.23079 11.2628 6.23079 10.1069C6.23079 9.7528 6.51782 9.46583 6.87182 9.46583C7.22587 9.46583 7.51284 9.7528 7.51284 10.1069C7.51284 10.6091 7.89346 10.9616 8.29915 10.9616H9.90602C10.2053 10.9616 10.5043 10.6986 10.5043 10.2949C10.5043 9.99947 10.4404 9.88927 10.4061 9.84542C10.3663 9.79445 10.2878 9.73214 10.086 9.66014L7.51156 8.76204C7.21443 8.65629 6.86864 8.49106 6.61018 8.16194C6.34561 7.82506 6.23936 7.40383 6.23936 6.91881C6.23936 5.88086 7.04879 4.97009 8.11966 4.97009H9.72653C10.8935 4.97009 11.7949 5.95091 11.7949 7.10686C11.7949 7.46086 11.5079 7.74788 11.1539 7.74788C10.7999 7.74788 10.5128 7.46086 10.5128 7.10686C10.5128 6.60465 10.1323 6.25214 9.72653 6.25214H8.11966Z" fill="#676767"/>
<path fill-rule="evenodd" clip-rule="evenodd" d="M9.00854 4.11542C9.36254 4.11542 9.64956 4.40239 9.64956 4.75644V12.4573C9.64956 12.8113 9.36254 13.0983 9.00854 13.0983C8.65449 13.0983 8.36751 12.8113 8.36751 12.4573V4.75644C8.36751 4.40239 8.65449 4.11542 9.00854 4.11542Z" fill="#676767"/>
</svg>
