<svg width="20" height="21" viewBox="0 0 20 21" fill="none" xmlns="http://www.w3.org/2000/svg">
<path d="M14.1667 2.01624C16.5507 2.01624 18.4831 3.94959 18.4831 6.33362V14.6666C18.4831 17.0506 16.5507 18.983 14.1667 18.983H5.83366C3.44963 18.983 1.51628 17.0506 1.51628 14.6666V6.33362C1.51628 3.94959 3.44963 2.01624 5.83366 2.01624H14.1667ZM5.83366 3.15002C5.20279 3.15002 4.40512 3.60395 3.75456 4.25452C3.10399 4.90508 2.65006 5.70275 2.65006 6.33362V14.6666C2.65006 15.2974 3.10417 16.0943 3.75456 16.7448C4.40512 17.3953 5.20279 17.8502 5.83366 17.8502H14.1667C14.7976 17.8502 15.5942 17.3953 16.2448 16.7448C16.8954 16.0942 17.3503 15.2975 17.3503 14.6666V6.33362C17.3503 5.70275 16.8954 4.90508 16.2448 4.25452C15.5943 3.60413 14.7974 3.15002 14.1667 3.15002H5.83366Z" fill="#676767" stroke="#676767" stroke-width="0.3"/>
<path fill-rule="evenodd" clip-rule="evenodd" d="M13.3334 11.3333C13.7936 11.3333 14.1667 11.7063 14.1667 12.1666V13.8333C14.1667 14.2935 13.7936 14.6666 13.3334 14.6666C12.8731 14.6666 12.5001 14.2935 12.5001 13.8333V12.1666C12.5001 11.7063 12.8731 11.3333 13.3334 11.3333Z" fill="#676767"/>
<path fill-rule="evenodd" clip-rule="evenodd" d="M6.6666 6.33325C7.12683 6.33325 7.49993 6.70635 7.49993 7.16659V13.8333C7.49993 14.2935 7.12683 14.6666 6.6666 14.6666C6.20636 14.6666 5.83327 14.2935 5.83327 13.8333V7.16659C5.83327 6.70635 6.20637 6.33325 6.6666 6.33325Z" fill="#676767"/>
<path fill-rule="evenodd" clip-rule="evenodd" d="M10 8.83325C10.4603 8.83325 10.8333 9.20634 10.8333 9.66659V13.8333C10.8333 14.2935 10.4603 14.6666 10 14.6666C9.53975 14.6666 9.16667 14.2935 9.16667 13.8333V9.66659C9.16667 9.20634 9.53975 8.83325 10 8.83325Z" fill="#676767"/>
</svg>
