<svg width="20" height="21" viewBox="0 0 20 21" fill="none" xmlns="http://www.w3.org/2000/svg">
<path d="M17.8617 5.40568V7.36528C17.8617 8.64468 17.0519 9.45443 15.7725 9.45443H13.0032V3.79428C13.0032 2.89546 13.74 2.16669 14.6389 2.16669C15.5215 2.17478 16.3312 2.53107 16.9142 3.11409C17.4973 3.70521 17.8617 4.51496 17.8617 5.40568Z" stroke="#676767" stroke-width="1.5" stroke-miterlimit="10" stroke-linecap="round" stroke-linejoin="round"/>
<path d="M1.66667 6.21543V17.5519C1.66667 18.224 2.42783 18.6046 2.96226 18.1997L4.34694 17.1632C4.67084 16.9203 5.1243 16.9527 5.41581 17.2442L6.75999 18.5965C7.07579 18.9123 7.59403 18.9123 7.90983 18.5965L9.27021 17.2361C9.55363 16.9527 10.0071 16.9203 10.3229 17.1632L11.7076 18.1997C12.242 18.5965 13.0032 18.2159 13.0032 17.5519V3.78619C13.0032 2.89546 13.7319 2.16669 14.6227 2.16669H5.71541H4.90566C2.47642 2.16669 1.66667 3.61614 1.66667 5.40568V6.21543Z" stroke="#676767" stroke-width="1.5" stroke-miterlimit="10" stroke-linecap="round" stroke-linejoin="round"/>
<path d="M7.33491 11.082H9.76416" stroke="#676767" stroke-width="1.5" stroke-linecap="round" stroke-linejoin="round"/>
<path d="M7.33491 7.84302H9.76416" stroke="#676767" stroke-width="1.5" stroke-linecap="round" stroke-linejoin="round"/>
<path d="M4.90211 11.0739H4.90938" stroke="#676767" stroke-width="2" stroke-linecap="round" stroke-linejoin="round"/>
<path d="M4.90211 7.83496H4.90938" stroke="#676767" stroke-width="2" stroke-linecap="round" stroke-linejoin="round"/>
</svg>
