<svg width="20" height="21" viewBox="0 0 20 21" fill="none" xmlns="http://www.w3.org/2000/svg">
<path d="M10.0001 1.28357C12.4617 1.28362 14.776 2.24228 16.5167 3.98279C18.2575 5.72356 19.2169 8.03857 19.2169 10.5004C19.2169 11.2258 19.1319 11.9483 18.965 12.6478L18.9532 12.6967L18.9044 12.6849L17.8595 12.4349L17.8116 12.4232L17.8224 12.3754C17.968 11.7652 18.0421 11.1341 18.0421 10.5004C18.0421 6.06585 14.4346 2.45751 10.0001 2.4574C7.72394 2.4574 5.59867 3.40685 4.08899 5.04724L4.5636 4.98083L4.61243 4.974L4.61926 5.0238L4.76965 6.08728L4.77649 6.13708L4.72668 6.14392L2.28625 6.48669L2.23743 6.49451L2.22961 6.4447L1.88684 4.00525L1.88 3.95544L1.92981 3.94861L2.99329 3.79919L3.04309 3.79236L3.04993 3.84119L3.12317 4.36462C4.8586 2.41497 7.33957 1.28357 10.0001 1.28357Z" fill="#676767" stroke="#676767" stroke-width="0.1"/>
<path d="M1.15072 8.10144L2.1888 8.37585L2.23763 8.38855L2.22494 8.4364C2.04785 9.10575 1.95737 9.80029 1.95736 10.4999C1.95736 14.9345 5.56574 18.5428 10.0003 18.5428C12.3856 18.5428 14.5829 17.5142 16.098 15.743L15.5257 15.8134L15.4759 15.8192L15.4701 15.7704L15.3392 14.704L15.3324 14.6542L15.3822 14.6483L17.8577 14.3436L17.9076 14.3378L17.9134 14.3876L18.2269 16.9384L18.2327 16.9882L18.1839 16.994L17.1175 17.1249L17.0677 17.1307L17.0618 17.0819L16.9906 16.5028C16.3085 17.2961 15.4952 17.9742 14.5853 18.4969C13.1964 19.2949 11.6109 19.7166 10.0003 19.7167C7.53861 19.7167 5.2235 18.7581 3.48275 17.0175C1.74202 15.2767 0.783529 12.9616 0.783529 10.4999C0.78354 9.69908 0.886159 8.90392 1.08919 8.1366L1.10189 8.08777L1.15072 8.10144Z" fill="#676767" stroke="#676767" stroke-width="0.1"/>
<path d="M6.47176 12.7339L9.41317 14.4507V10.6655L6.47176 8.94971V12.7339ZM10.587 10.6655V14.4507L13.5284 12.7339V8.94971L10.587 10.6655ZM7.04891 7.92822L10.0001 9.64795L12.9503 7.92822L10.0001 6.20752L7.04891 7.92822ZM14.7022 13.4097L14.6778 13.4233L10.0255 16.1372L10.0001 16.1519L9.97469 16.1372L5.32235 13.4233L5.29793 13.4097V7.59131L5.32235 7.57666L9.97469 4.86279L10.0001 4.84814L10.0255 4.86279L14.6778 7.57666L14.7022 7.59131V13.4097Z" fill="#676767" stroke="#676767" stroke-width="0.1"/>
</svg>
