<svg width="20" height="21" viewBox="0 0 20 21" fill="none" xmlns="http://www.w3.org/2000/svg">
<path d="M13.2703 18.8175H6.72969C5.8699 18.8175 4.86027 18.2348 4.43097 17.4904L1.16066 11.8274C0.724225 11.0711 0.724225 9.92943 1.16066 9.1725L4.43156 3.50952C4.86086 2.76508 5.8705 2.18237 6.73029 2.18237H13.2703C14.1301 2.18237 15.1397 2.76508 15.569 3.50952L18.8393 9.1725C19.2758 9.92883 19.2758 11.0705 18.8393 11.8274L15.5684 17.4904C15.1397 18.2348 14.1295 18.8175 13.2703 18.8175ZM6.72969 3.37098C6.28672 3.37098 5.68201 3.72001 5.46082 4.10353L2.18992 9.76651C1.96872 10.15 1.96872 10.8487 2.18992 11.2322L5.46022 16.8952C5.68201 17.2793 6.28672 17.6277 6.7291 17.6277H13.2703C13.7133 17.6277 14.318 17.2787 14.5392 16.8952L17.8101 11.2322C18.0313 10.8487 18.0313 10.15 17.8101 9.76651L14.5398 4.10353C14.318 3.71942 13.7133 3.37098 13.2709 3.37098H6.72969ZM10 14.0173C8.05982 14.0173 6.48175 12.4392 6.48175 10.4997C6.48175 8.56006 8.05982 6.98199 10 6.98199C11.9402 6.98199 13.5183 8.56006 13.5183 10.4997C13.5183 12.4392 11.9402 14.0173 10 14.0173ZM10 8.17119C8.71566 8.17119 7.67095 9.21591 7.67095 10.4997C7.67095 11.7834 8.71566 12.8281 10 12.8281C11.2843 12.8281 12.3291 11.7834 12.3291 10.4997C12.3291 9.21591 11.2843 8.17119 10 8.17119Z" fill="#676767"/>
</svg>
