<svg width="20" height="19" viewBox="0 0 20 19" fill="none" xmlns="http://www.w3.org/2000/svg">
<path d="M12.5 1.16663V9.49996C12.5 10.4166 11.75 11.1666 10.8333 11.1666H1.66667V4.49996C1.66667 2.65829 3.15833 1.16663 5 1.16663H12.5Z" stroke="#676767" stroke-width="1.5" stroke-linecap="round" stroke-linejoin="round"/>
<path d="M18.3333 11.1666V13.6666C18.3333 15.05 17.2167 16.1666 15.8333 16.1666H15C15 15.25 14.25 14.5 13.3333 14.5C12.4167 14.5 11.6667 15.25 11.6667 16.1666H8.33333C8.33333 15.25 7.58333 14.5 6.66667 14.5C5.75 14.5 5 15.25 5 16.1666H4.16667C2.78333 16.1666 1.66667 15.05 1.66667 13.6666V11.1666H10.8333C11.75 11.1666 12.5 10.4166 12.5 9.49996V3.66663H14.0333C14.6333 3.66663 15.1833 3.99163 15.4833 4.5083L16.9083 6.99996H15.8333C15.375 6.99996 15 7.37496 15 7.83329V10.3333C15 10.7916 15.375 11.1666 15.8333 11.1666H18.3333Z" stroke="#676767" stroke-width="1.5" stroke-linecap="round" stroke-linejoin="round"/>
<path d="M6.66667 17.8333C7.58714 17.8333 8.33333 17.0871 8.33333 16.1667C8.33333 15.2462 7.58714 14.5 6.66667 14.5C5.74619 14.5 5 15.2462 5 16.1667C5 17.0871 5.74619 17.8333 6.66667 17.8333Z" stroke="#676767" stroke-width="1.5" stroke-linecap="round" stroke-linejoin="round"/>
<path d="M13.3333 17.8333C14.2538 17.8333 15 17.0871 15 16.1667C15 15.2462 14.2538 14.5 13.3333 14.5C12.4129 14.5 11.6667 15.2462 11.6667 16.1667C11.6667 17.0871 12.4129 17.8333 13.3333 17.8333Z" stroke="#676767" stroke-width="1.5" stroke-linecap="round" stroke-linejoin="round"/>
<path d="M18.3333 9.5V11.1667H15.8333C15.375 11.1667 15 10.7917 15 10.3333V7.83333C15 7.375 15.375 7 15.8333 7H16.9083L18.3333 9.5Z" stroke="#676767" stroke-width="1.5" stroke-linecap="round" stroke-linejoin="round"/>
</svg>
