<svg width="20" height="21" viewBox="0 0 20 21" fill="none" xmlns="http://www.w3.org/2000/svg">
<path d="M2.50824 9.84998V13.5916C2.50824 17.3333 4.00824 18.8333 7.7499 18.8333H12.2416C15.9832 18.8333 17.4832 17.3333 17.4832 13.5916V9.84998" stroke="#676767" stroke-width="1.5" stroke-linecap="round" stroke-linejoin="round"/>
<path d="M9.9999 10.5C11.5249 10.5 12.6499 9.25829 12.4999 7.73329L11.9499 2.16663H8.05824L7.4999 7.73329C7.3499 9.25829 8.4749 10.5 9.9999 10.5Z" stroke="#676767" stroke-width="1.5" stroke-linecap="round" stroke-linejoin="round"/>
<path d="M15.2582 10.5C16.9416 10.5 18.1749 9.13329 18.0082 7.45829L17.7749 5.16663C17.4749 2.99996 16.6416 2.16663 14.4582 2.16663H11.9166L12.4999 8.00829C12.6416 9.38329 13.8832 10.5 15.2582 10.5Z" stroke="#676767" stroke-width="1.5" stroke-linecap="round" stroke-linejoin="round"/>
<path d="M4.6999 10.5C6.0749 10.5 7.31657 9.38329 7.4499 8.00829L7.63324 6.16663L8.03324 2.16663H5.49157C3.30824 2.16663 2.4749 2.99996 2.1749 5.16663L1.9499 7.45829C1.78324 9.13329 3.01657 10.5 4.6999 10.5Z" stroke="#676767" stroke-width="1.5" stroke-linecap="round" stroke-linejoin="round"/>
<path d="M9.9999 14.6666C8.60824 14.6666 7.91657 15.3583 7.91657 16.75V18.8333H12.0832V16.75C12.0832 15.3583 11.3916 14.6666 9.9999 14.6666Z" stroke="#676767" stroke-width="1.5" stroke-linecap="round" stroke-linejoin="round"/>
</svg>
