<svg width="18" height="19" viewBox="0 0 18 19" fill="none" xmlns="http://www.w3.org/2000/svg">
<path d="M8.99967 1.06708C11.2521 1.06708 13.3708 1.94411 14.9635 3.5368C16.5561 5.12941 17.4332 7.2475 17.4333 9.49969C17.4333 11.7521 16.5562 13.8709 14.9635 15.4636C13.3708 17.0563 11.2521 17.9333 8.99967 17.9333C6.74747 17.9332 4.62939 17.0561 3.03678 15.4636C1.44409 13.8709 0.567057 11.7521 0.567057 9.49969C0.567141 7.24742 1.44416 5.12943 3.03678 3.5368C4.6294 1.94418 6.7474 1.06716 8.99967 1.06708ZM8.99967 2.24286C7.06124 2.24294 5.23942 2.9981 3.86881 4.36884C2.49808 5.73944 1.74292 7.56126 1.74284 9.49969C1.74284 11.4383 2.498 13.2608 3.86881 14.6315C5.2394 16.0022 7.06131 16.7564 8.99967 16.7565C10.9382 16.7565 12.7608 16.0023 14.1315 14.6315C15.5023 13.2608 16.2565 11.4383 16.2565 9.49969C16.2564 7.56133 15.5021 5.73942 14.1315 4.36884C12.7608 2.99803 10.9382 2.24286 8.99967 2.24286Z" fill="#676767" stroke="#676767" stroke-width="0.2"/>
<path d="M9.74577 6.32977C10.4145 5.66107 11.5018 5.66112 12.1706 6.32977C12.8391 6.9986 12.8392 8.08582 12.1706 8.75458C11.8361 9.08905 11.3961 9.25653 10.9577 9.25653C10.5194 9.25644 10.0802 9.08887 9.74577 8.75458C9.07696 8.08578 9.07699 6.9986 9.74577 6.32977ZM10.9577 7.30341C10.8937 7.30349 10.835 7.32843 10.7897 7.37372C10.6969 7.46643 10.6969 7.61792 10.7897 7.71063C10.8824 7.80327 11.034 7.80336 11.1266 7.71063C11.172 7.66526 11.196 7.60575 11.196 7.54169C11.1959 7.4779 11.1718 7.41898 11.1266 7.37372C11.0814 7.32844 11.0219 7.30341 10.9577 7.30341Z" fill="#676767" stroke="#676767" stroke-width="0.5"/>
<path d="M9.74577 10.2458C10.4144 9.57717 11.5017 9.57702 12.1706 10.2458C12.8391 10.9147 12.8392 12.0019 12.1706 12.6707C11.8361 13.0051 11.3962 13.1726 10.9577 13.1726C10.5194 13.1725 10.0802 13.005 9.74577 12.6707C9.07696 12.0018 9.07697 10.9147 9.74577 10.2458ZM10.9577 11.2205C10.8961 11.2205 10.8357 11.2437 10.7897 11.2898C10.697 11.3825 10.697 11.534 10.7897 11.6267C10.835 11.6719 10.8938 11.696 10.9577 11.696C11.0217 11.696 11.0813 11.6721 11.1266 11.6267C11.1719 11.5815 11.196 11.5219 11.196 11.4578C11.1959 11.3937 11.1718 11.3349 11.1266 11.2898C11.0805 11.2437 11.0194 11.2205 10.9577 11.2205Z" fill="#676767" stroke="#676767" stroke-width="0.5"/>
<path d="M5.82975 10.2458C6.4986 9.57703 7.58578 9.57722 8.25456 10.2458C8.92315 10.9147 8.92328 12.0019 8.25456 12.6707C7.92005 13.0052 7.48016 13.1726 7.04167 13.1726C6.60336 13.1725 6.16417 13.005 5.82975 12.6707C5.16109 12.0018 5.16109 10.9147 5.82975 10.2458ZM7.04167 11.2205C6.98003 11.2205 6.91972 11.2437 6.8737 11.2898C6.82849 11.3349 6.80346 11.3937 6.80339 11.4578C6.80339 11.5219 6.82845 11.5815 6.8737 11.6267C6.91898 11.6719 6.9778 11.696 7.04167 11.696C7.10573 11.696 7.16524 11.6721 7.21061 11.6267C7.30324 11.5341 7.30311 11.3825 7.21061 11.2898C7.16453 11.2437 7.10339 11.2205 7.04167 11.2205Z" fill="#676767" stroke="#676767" stroke-width="0.5"/>
<path d="M5.82975 6.32977C6.49857 5.66111 7.58574 5.66111 8.25456 6.32977C8.92313 6.99861 8.9233 8.08584 8.25456 8.75458C7.92005 9.08909 7.48016 9.25653 7.04167 9.25653C6.60337 9.25647 6.16417 9.08886 5.82975 8.75458C5.16109 8.08576 5.16109 6.99859 5.82975 6.32977ZM7.04167 7.30341C6.97779 7.30347 6.91899 7.32843 6.8737 7.37372C6.82841 7.41901 6.80345 7.47781 6.80339 7.54169C6.80339 7.60575 6.82833 7.66526 6.8737 7.71063C6.96652 7.80319 7.11806 7.80325 7.21061 7.71063C7.30332 7.61798 7.3032 7.46644 7.21061 7.37372C7.1654 7.32844 7.10588 7.30341 7.04167 7.30341Z" fill="#676767" stroke="#676767" stroke-width="0.5"/>
</svg>
