<svg width="17" height="16" viewBox="0 0 17 16" fill="none" xmlns="http://www.w3.org/2000/svg">
<rect x="0.5" width="16" height="16" rx="3" fill="#FFE1D3"/>
<path d="M8.21359 3.66415C8.31907 3.5588 8.46204 3.49963 8.61111 3.49963C8.76018 3.49963 8.90316 3.5588 9.00863 3.66415L11.0712 5.72676C11.1265 5.77826 11.1708 5.84036 11.2016 5.90937C11.2323 5.97837 11.2489 6.05286 11.2502 6.12839C11.2515 6.20392 11.2376 6.27895 11.2093 6.34899C11.1811 6.41904 11.1389 6.48267 11.0855 6.53608C11.0321 6.5895 10.9685 6.63161 10.8984 6.6599C10.8284 6.6882 10.7534 6.70209 10.6778 6.70076C10.6023 6.69943 10.5278 6.68289 10.4588 6.65215C10.3898 6.6214 10.3277 6.57707 10.2762 6.52181L9.17364 5.41924V11.9371C9.17364 12.0863 9.11438 12.2294 9.00888 12.3349C8.90339 12.4404 8.7603 12.4996 8.61111 12.4996C8.46192 12.4996 8.31884 12.4404 8.21334 12.3349C8.10785 12.2294 8.04858 12.0863 8.04858 11.9371V5.41924L6.94602 6.52181C6.83938 6.62117 6.69834 6.67527 6.55261 6.67269C6.40687 6.67012 6.26783 6.61109 6.16476 6.50802C6.0617 6.40496 6.00266 6.26591 6.00009 6.12017C5.99752 5.97444 6.05161 5.8334 6.15098 5.72676L8.21359 3.66415Z" fill="#6708CC"/>
</svg>
