<svg width="20" height="21" viewBox="0 0 20 21" fill="none" xmlns="http://www.w3.org/2000/svg">
<path d="M10.1879 9.62919C10.1037 9.62077 10.0028 9.62077 9.91021 9.62919C7.90786 9.56188 6.31775 7.9213 6.31775 5.90211C6.31775 3.84086 7.98358 2.16663 10.0532 2.16663C12.1145 2.16663 13.7887 3.84086 13.7887 5.90211C13.7803 7.9213 12.1902 9.56188 10.1879 9.62919Z" stroke="#676767" stroke-width="1.5" stroke-linecap="round" stroke-linejoin="round"/>
<path d="M5.98135 12.7337C3.94534 14.0966 3.94534 16.3177 5.98135 17.6723C8.295 19.2203 12.0894 19.2203 14.403 17.6723C16.439 16.3093 16.439 14.0882 14.403 12.7337C12.0978 11.1941 8.30341 11.1941 5.98135 12.7337Z" stroke="#676767" stroke-width="1.5" stroke-linecap="round" stroke-linejoin="round"/>
</svg>
