<svg width="8" height="10" viewBox="0 0 8 10" fill="none" xmlns="http://www.w3.org/2000/svg">
<path d="M4.20799 9.25C4.71569 9.25 5.13107 8.83462 5.13107 8.32692H3.28492C3.28492 8.57174 3.38217 8.80653 3.55528 8.97964C3.72839 9.15275 3.96318 9.25 4.20799 9.25ZM6.97722 6.48077V4.17308C6.97722 2.75615 6.2203 1.57 4.9003 1.25615V0.942308C4.9003 0.559231 4.59107 0.25 4.20799 0.25C3.82492 0.25 3.51569 0.559231 3.51569 0.942308V1.25615C2.19107 1.57 1.43876 2.75154 1.43876 4.17308V6.48077L0.843379 7.07615C0.552609 7.36692 0.755686 7.86538 1.16646 7.86538H7.24492C7.65569 7.86538 7.86338 7.36692 7.57261 7.07615L6.97722 6.48077Z" fill="#F8FAFD"/>
</svg>
